<?xml version="1.0" standalone="no"?>
<!DOCTYPE svg PUBLIC "-//W3C//DTD SVG 1.1//EN" "http://www.w3.org/Graphics/SVG/1.1/DTD/svg11.dtd" >
<!--
2013-9-30: Created.
-->
<svg>
<metadata>
Created by iconfont
</metadata>
<defs>

<font id="iconfont" horiz-adv-x="1024" >
  <font-face
    font-family="iconfont"
    font-weight="500"
    font-stretch="normal"
    units-per-em="1024"
    ascent="896"
    descent="-128"
  />
    <missing-glyph />
    
    <glyph glyph-name="ceshi1" unicode="&#59017;" d="M1081.512186 39.950809H52.920657A52.919322 52.919322 0 0 0 0.001334 92.870131V827.070137A68.483829 68.483829 0 0 0 68.929863 895.998666h1012.582323a52.919322 52.919322 0 0 0 52.919322-52.919322v-751.543314a52.919322 52.919322 0 0 0-52.919322-51.585221z m-995.239015 75.599031h961.886501a16.453907 16.453907 0 0 1 16.453907 16.898607v667.050279a16.453907 16.453907 0 0 1-16.453907 16.898607H86.273171a16.453907 16.453907 0 0 1-16.453907-16.898607v-667.050279a16.453907 16.453907 0 0 1 16.453907-16.898607zM105.839979-62.330234h920.974084c12.451605 0 24.45851-4.447002 26.237311-13.341006a9.338704 9.338704 0 0 0 0-4.891702v-28.905512c0-8.894004-7.115203-16.898607-19.566808-18.232707H105.839979a22.679709 22.679709 0 0 0-24.458511 13.341005 4.891702 4.891702 0 0 0 0 3.557602V-82.341743c0 8.449304 7.115203 16.453907 19.566809 18.232708zM731.53314 269.860804a34.241914 34.241914 0 0 0-25.347911 10.228105 32.907814 32.907814 0 0 0 0 44.470018L837.371784 451.29848 711.521632 570.03343a33.797214 33.797214 0 0 0 0 44.470018 37.799516 37.799516 0 0 0 51.140521 0l177.880074-168.98607L755.99165 279.644209a36.465415 36.465415 0 0 0-24.45851-9.783405z m-326.409936 0a35.131315 35.131315 0 0 1 24.90321 10.228105 32.463114 32.463114 0 0 1 0 44.470018L297.505759 451.29848l126.294852 118.73495a32.907814 32.907814 0 0 1 0 44.470018 36.910115 36.910115 0 0 1-51.140521 0L197.448217 451.29848l182.327076-171.209571a38.688916 38.688916 0 0 1 25.347911-10.228105z m239.2487 299.283225l-97.834041-266.820111a36.465415 36.465415 0 0 0-44.470019-21.790309 36.465415 36.465415 0 0 0-21.790309 46.693519l99.168141 266.820112a36.465415 36.465415 0 0 0 44.470019 21.790309 36.465415 36.465415 0 0 0 21.790309-44.470019z"  horiz-adv-x="1134" />

    
    <glyph glyph-name="huidulianlu1" unicode="&#59020;" d="M902.693058 242.576071a397.802068 397.802068 0 0 1-224.765732 458.909306l20.873265 47.79675a450.438996 450.438996 0 0 0 267.722304-410.810044 444.388774 444.388774 0 0 0-16.94062-121.004432 111.021566 111.021566 0 1 0-46.889217 25.10842zM229.000886 53.506647a405.062334 405.062334 0 0 1 522.436632-36.906352l30.251108-41.444017a457.094239 457.094239 0 0 0-599.274446 52.939438 111.929099 111.929099 0 1 0 46.586706 25.410931z m181.506647 669.457016a399.919645 399.919645 0 0 1-300.393501-385.399114v-27.225997l-51.426883-3.327621v30.251107A451.044018 451.044018 0 0 0 401.432201 774.390547a111.324077 111.324077 0 1 0 9.680354-50.519351z m101.946234-595.946824a213.875332 213.875332 0 0 0-214.782866 214.177843 214.177843 214.177843 0 1 0 428.053176 9.075333v-9.075333a214.177843 214.177843 0 0 0-214.177844-214.177843z m0 51.426883a162.75096 162.75096 0 0 1 162.75096 162.75096 162.75096 162.75096 0 0 1-325.501921 0 162.75096 162.75096 0 0 1 162.750961-162.75096z m0 531.209454a60.502216 60.502216 0 1 1 3.327621 121.004431h-3.327621a60.502216 60.502216 0 0 1 0-121.004431z m-359.685672-635.273265a60.502216 60.502216 0 1 1-60.502216 60.502216 60.502216 60.502216 0 0 1 60.502216-59.292171z m719.371344 0a60.502216 60.502216 0 1 1-60.502216 60.502216 60.502216 60.502216 0 0 1 60.804727-59.292171zM779.268538 343.614771a287.083013 287.083013 0 0 1-24.503398 124.937075 186.951846 186.951846 0 0 1-87.425701 92.56839l20.873264 46.889217a252.899261 252.899261 0 0 0 114.349188-121.004431 334.879764 334.879764 0 0 0 28.13353-142.785229z"  horiz-adv-x="1024" />

    
    <glyph glyph-name="jiazai" unicode="&#59019;" d="M142.208 327.104m-142.208 0a142.208 142.208 0 1 1 284.416 0 142.208 142.208 0 1 1-284.416 0ZM455.104 753.792m-142.208 0a142.208 142.208 0 1 1 284.416 0 142.208 142.208 0 1 1-284.416 0ZM881.792 440.896m-142.208 0a142.208 142.208 0 1 1 284.416 0 142.208 142.208 0 1 1-284.416 0ZM568.896 14.208m-142.208 0a142.208 142.208 0 1 1 284.416 0 142.208 142.208 0 1 1-284.416 0Z"  horiz-adv-x="1024" />

    
    <glyph glyph-name="chuli3" unicode="&#59018;" d="M916.77093 728.547754L514.102489 325.879313a43.6701 43.6701 0 0 0-60.23462 0l-106.916453 106.916452a43.971273 43.971273 0 0 1-61.740486 0 43.971273 43.971273 0 0 1 0-60.234621L421.642346 233.41917l30.117311-30.11731a43.6701 43.6701 0 0 1 60.234621 0L978.511417 666.807267a43.6701 43.6701 0 1 1-61.740487 61.740487zM827.322518-127.988555H196.364864A196.364864 196.364864 0 0 0 0 68.376309v632.463519A196.364864 196.364864 0 0 0 196.364864 896h425.85877a38.550157 38.550157 0 0 0 0-77.100315H196.364864a120.469242 120.469242 0 0 1-120.469242-120.469242v-632.463519a120.469242 120.469242 0 0 1 120.469242-120.469242h632.46352a120.469242 120.469242 0 0 1 120.469241 120.469242V449.661459a38.550157 38.550157 0 0 0 77.100315 0v-381.28515A196.96721 196.96721 0 0 0 827.322518-127.988555z"  horiz-adv-x="1026" />

    
    <glyph glyph-name="cancel_icon1" unicode="&#58987;" d="M853.482961 895.998795H170.817098A170.214569 170.214569 0 0 1 0 725.784226v-678.146892a170.214569 170.214569 0 0 1 170.817098-169.61204h205.763806a42.177061 42.177061 0 1 1 0 84.052858H170.817098a86.161711 86.161711 0 0 0-60.252945 24.703708 85.257917 85.257917 0 0 0-25.004972 60.252944V725.181697a84.655387 84.655387 0 0 0 85.257917 84.655387h682.665863a85.257917 85.257917 0 0 0 85.559182-84.655387v-256.075015a41.875797 41.875797 0 0 1 43.080855-40.369473 42.779591 42.779591 0 0 1 42.177062 42.177061V725.784226a170.515833 170.515833 0 0 1-170.817099 170.214569zM257.882603 629.07825H665.795039a38.26062 38.26062 0 0 1 0 76.219975H257.882603a38.26062 38.26062 0 0 1 0-76.219975z m301.264724-92.789535h-301.264724a38.26062 38.26062 0 0 1 0-76.219975h301.264724a38.26062 38.26062 0 0 1 0 76.219975zM451.897085 367.279205H257.882603a38.26062 38.26062 0 0 1 0-76.219975H451.897085a38.26062 38.26062 0 0 1 0 76.219975z m548.301797-109.359094a37.055561 37.055561 0 0 1-52.420062 1.807588L813.414753 124.761103l-135.87039 134.966596a37.65809 37.65809 0 0 1-52.721327-1.807588 36.453032 36.453032 0 0 1-1.506323-52.118797l135.87039-134.966597-135.87039-134.966596a36.754296 36.754296 0 0 1 1.506323-52.118797 37.65809 37.65809 0 0 1 52.721327-1.807588L813.414753 17.209597l136.171655-135.267861a37.356826 37.356826 0 0 1 52.420062 1.807588 36.453032 36.453032 0 0 1 1.807588 52.118797l-136.171655 134.966596 136.171655 134.966597a36.453032 36.453032 0 0 1-3.012647 52.118797z"  horiz-adv-x="1024" />

    
    <glyph glyph-name="members_icon1" unicode="&#58988;" d="M511.844566 664.714026a132.119004 132.119004 0 1 1 132.119004 132.119004 132.119004 132.119004 0 0 1-132.119004-132.119004zM406.460231-128c-199.266545 0-356.876746 0-356.876746 115.021251v23.00425c0 215.120826 160.097146 324.23558 356.876746 324.23558h210.457802c197.090468 0 357.498482-109.114754 357.498482-324.23558v-23.00425c0-115.021251-165.692775-115.021251-357.498482-115.021251z m0 396.357013c-161.029751 0-292.216151-80.204007-292.216151-260.196722v-23.315118c0-46.941105 168.801457-46.941105 292.216151-46.941105h208.281724c101.964784 0 292.216151 0 292.216151 46.941105v23.315118c0 179.992714-131.1864 260.196721-292.216151 260.196722z m105.384335 132.119004c-145.797207 0-264.238009 85.488767-264.238009 231.285974a264.238009 264.238009 0 0 0 528.476017 0c0-145.797207-118.440801-231.285974-264.238008-231.285974zM313.821494 631.761991c0-109.425622 88.908318-165.381906 198.023072-165.381906s198.33394 55.956284 198.33394 165.381906a198.33394 198.33394 0 0 1-396.357012 0z"  horiz-adv-x="1024" />

    
    <glyph glyph-name="jiekou" unicode="&#58986;" d="M873.574124 746.264151a512 512 0 1 1 0-724.528302 512 512 0 0 1 0 724.528302z m-45.196766-678.641509a448.51752 448.51752 0 1 0 0 633.444743 448.51752 448.51752 0 0 0 0-633.444743zM787.665768 660.355795c-64.862534 65.207547-163.536388 72.107817-219.773585 15.87062l-149.390835-149.045822a138.005391 138.005391 0 0 1-36.571429-111.784367 34.501348 34.501348 0 0 1-7.93531 12.075472 38.641509 38.641509 0 0 1-54.857143 0l-99.363881-99.363881c-56.237197-56.237197-49.336927-154.911051 15.87062-219.773585s163.536388-72.107817 219.773585-15.87062l149.045822 149.045822a138.005391 138.005391 0 0 1 36.916442 111.784367 34.501348 34.501348 0 0 1 7.93531-12.075472 38.641509 38.641509 0 0 1 54.857143 0l99.363881 99.363881c56.237197 56.237197 49.336927 154.911051-15.87062 219.773585z m-38.641509-164.916442l-99.363882-99.708895a38.986523 38.986523 0 0 1-11.040431-25.185984 184.237197 184.237197 0 0 1-49.336927 91.083558 39.331536 39.331536 0 0 1-54.857143 0 38.641509 38.641509 0 0 1 0-54.857143c34.501348-34.501348 41.401617-84.873315 15.87062-110.404312l-149.390836-149.390836c-25.530997-25.530997-76.247978-18.285714-110.404312 15.87062s-41.401617 84.873315-15.87062 110.404313l99.018868 99.708895a36.916442 36.916442 0 0 1 10.695417 25.185984 187.687332 187.687332 0 0 1 49.681941-91.083558 39.331536 39.331536 0 0 1 54.857143 0 38.641509 38.641509 0 0 1 0 54.857142c-34.501348 34.501348-41.401617 84.873315-15.87062 110.404313l149.390836 149.390836c25.530997 25.530997 76.247978 18.285714 110.404312-15.87062s41.401617-84.873315 15.87062-110.404313z"  horiz-adv-x="1024" />

    
    <glyph glyph-name="jinggao1" unicode="&#58982;" d="M0 896h1024v-1024H0zM512 896c282.794667 0 512-229.248 512-512s-229.248-512-512-512S0 101.290667 0 384 229.248 896 512 896z m0-682.410667a56.789333 56.789333 0 1 1 0-113.621333 56.789333 56.789333 0 0 1 0 113.621333z m0 426.026667c-31.36 0-56.789333-25.429333-56.789333-56.832l28.373333-252.544c0-31.445333 13.098667-56.746667 28.416-56.746667 15.36 0 28.416 25.301333 28.416 56.746667l28.373333 252.586667c0 31.36-25.429333 56.746667-56.789333 56.746666z"  horiz-adv-x="1024" />

    
    <glyph glyph-name="tool-yingshe" unicode="&#58961;" d="M134.101333 393.472h183.04V298.666667h-206.08a66.901333 66.901333 0 0 0-48.341333 20.608c-12.8 13.226667-20.053333 31.232-20.053333 50.048V654.677333C42.666667 693.76 73.557333 725.333333 110.848 725.333333h503.637333C652.117333 725.333333 682.666667 693.888 682.666667 654.677333v-285.354666c0-39.125333-30.634667-70.656-68.394667-70.656h-68.48v94.805333h45.44V630.528H134.101333v-237.056zM478.464 374.528V469.333333H409.728a66.901333 66.901333 0 0 1-48.341333-20.608c-12.8-13.226667-20.053333-31.232-20.053334-50.048v-285.354666C341.333333 74.24 372.224 42.666667 409.514667 42.666667h503.637333c37.632 0 68.181333 31.445333 68.181333 70.656v285.354666c0 39.125333-30.634667 70.656-68.394666 70.656h-205.909334v-94.805333h182.869334v-237.056H432.768v237.056h45.696z"  horiz-adv-x="1024" />

    
    <glyph glyph-name="tool-kapian" unicode="&#58964;" d="M367.573333 420.096H150.954667A108.373333 108.373333 0 0 0 42.666667 528.426667V745.045333A108.373333 108.373333 0 0 0 150.954667 853.333333h216.618666a108.373333 108.373333 0 0 0 108.330667-108.288v-216.618666a108.373333 108.373333 0 0 0-108.330667-108.330667zM150.954667 781.141333a36.266667 36.266667 0 0 1-36.096-36.096v-216.618666a36.266667 36.266667 0 0 1 36.096-36.096h216.618666a36.266667 36.266667 0 0 1 36.138667 36.096V745.045333a36.266667 36.266667 0 0 1-36.138667 36.096H150.954667z m216.618666-866.688H150.954667A108.373333 108.373333 0 0 0 42.666667 22.784v216.789333a108.373333 108.373333 0 0 0 108.288 108.330667h216.618666a108.373333 108.373333 0 0 0 108.330667-108.330667v-216.618666a108.501333 108.501333 0 0 0-108.330667-108.501334z m-216.618666 361.258667a36.138667 36.138667 0 0 1-36.096-36.138667v-216.618666c0-19.968 16.298667-36.096 36.096-36.096h216.618666a36.138667 36.138667 0 0 1 36.138667 36.096v216.618666a36.138667 36.138667 0 0 1-36.138667 36.138667H150.954667z m722.261333 0h-216.789333A108.373333 108.373333 0 0 0 548.096 384V745.045333A108.373333 108.373333 0 0 0 656.426667 853.333333h216.618666A108.373333 108.373333 0 0 0 981.333333 745.045333V384a108.202667 108.202667 0 0 0-108.117333-108.288zM656.426667 781.141333a36.138667 36.138667 0 0 1-36.138667-36.096V384c0-19.797333 16.128-36.096 36.138667-36.096h216.618666a36.138667 36.138667 0 0 1 36.096 36.096V745.045333a36.138667 36.138667 0 0 1-36.096 36.096h-216.618666zM873.045333 203.306667A108.373333 108.373333 0 0 0 981.333333 94.976v-72.192a108.330667 108.330667 0 0 0-108.117333-108.330667h-216.789333a108.373333 108.373333 0 0 0-108.330667 108.330667v72.192a108.373333 108.373333 0 0 0 108.330667 108.330667h216.618666z m0-72.234667h-216.618666a36.053333 36.053333 0 0 1-36.138667-36.096v-72.192c0-20.010667 16.128-36.096 36.138667-36.096h216.618666a36.053333 36.053333 0 0 1 36.096 36.096v72.192a36.053333 36.053333 0 0 1-36.096 36.096z"  horiz-adv-x="1024" />

    
    <glyph glyph-name="tool-liebiao" unicode="&#58981;" d="M862.549333 145.749333a115.413333 115.413333 0 0 0 115.285334-115.328 115.413333 115.413333 0 0 0-115.285334-115.285333h-402.56a115.413333 115.413333 0 0 0-115.285333 115.285333 115.413333 115.413333 0 0 0 115.285333 115.328h402.56z m-692.053333-0.341333a115.114667 115.114667 0 0 0 114.986667-114.986667 115.114667 115.114667 0 0 0-115.029334-114.986666A115.114667 115.114667 0 0 0 55.466667 30.421333a115.114667 115.114667 0 0 0 114.986666 114.986667z m692.053333-55.04h-402.56c-33.024 0-59.904-26.88-59.904-59.946667 0-33.024 26.88-59.904 59.904-59.904h402.56c33.024 0 59.904 26.88 59.904 59.904 0 33.066667-26.88 59.946667-59.904 59.946667z m-692.053333-0.298667c-32.896 0-59.648-26.752-59.648-59.648 0-32.853333 26.752-59.605333 59.605333-59.605333s59.648 26.752 59.648 59.605333-26.752 59.648-59.648 59.648z m0 401.92a115.114667 115.114667 0 0 0 114.986667-114.986666 115.114667 115.114667 0 0 0-115.029334-114.986667A115.114667 115.114667 0 0 0 55.466667 377.002667 115.114667 115.114667 0 0 0 170.453333 491.946667z m692.053333 0.768a115.413333 115.413333 0 0 0 115.285334-115.285333 115.413333 115.413333 0 0 0-115.285334-115.328h-402.56a115.413333 115.413333 0 0 0-115.285333 115.328 115.413333 115.413333 0 0 0 115.285333 115.285333h402.56z m-692.053333-56.149333c-32.896 0-59.648-26.752-59.648-59.605333s26.752-59.605333 59.605333-59.605334 59.648 26.709333 59.648 59.605334c0 32.853333-26.752 59.605333-59.648 59.605333z m692.053333 0.768h-402.56c-33.024 0-59.904-26.88-59.904-59.904 0-33.066667 26.88-59.946667 59.904-59.946667h402.56c33.024 0 59.904 26.88 59.904 59.946667 0 33.024-26.88 59.904-59.904 59.904z m0 400.682667a115.413333 115.413333 0 0 0 115.285334-115.285334 115.413333 115.413333 0 0 0-115.285334-115.285333H459.093333A115.413333 115.413333 0 0 0 343.765333 722.773333a115.413333 115.413333 0 0 0 115.328 115.285334h403.456z m0-55.338667H459.093333c-33.066667 0-59.946667-26.88-59.946666-59.946667 0-33.024 26.88-59.904 59.946666-59.904h403.456c33.024 0 59.904 26.88 59.904 59.904 0 33.066667-26.88 59.946667-59.904 59.946667zM170.453333 838.272A115.114667 115.114667 0 0 0 285.482667 723.2a115.114667 115.114667 0 0 0-115.029334-114.986667A115.114667 115.114667 0 0 0 55.466667 723.242667a115.114667 115.114667 0 0 0 114.986666 115.029333z m0-55.381333c-32.853333 0-59.605333-26.752-59.605333-59.648 0-32.853333 26.752-59.605333 59.605333-59.605334s59.648 26.752 59.648 59.605334c0 32.896-26.752 59.648-59.648 59.648z"  horiz-adv-x="1024" />

    
    <glyph glyph-name="tool-disable2" unicode="&#58993;" d="M1024 725.333333a341.333333 341.333333 0 1 0 0-682.666666H341.333333A341.333333 341.333333 0 1 0 341.333333 725.333333h682.666667z m0-64H341.333333a277.333333 277.333333 0 0 1 0-554.666666h682.666667a277.333333 277.333333 0 1 1 0 554.666666zM341.333333 170.666667A213.333333 213.333333 0 1 0 341.333333 597.333333a213.333333 213.333333 0 0 0 0-426.666666z"  horiz-adv-x="1365" />

    
    <glyph glyph-name="up-hui" unicode="&#58994;" d="M564.608 27.733333c0.426667 8.106667 0.128 16.298667 0.128 24.448 0 140.501333 0.085333 280.96 0 421.418667-0.042667 54.016-11.861333 75.136-42.24 73.386667-30.933333-1.834667-41.429333-18.517333-40.106667-75.52 1.664-70.186667 0.426667-140.458667 0.426667-210.688v-73.514667c0-53.888-0.768-107.818667 0.469333-161.706667 0.768-33.109333 16.64-50.346667 41.386667-49.493333 24.533333 0.810667 38.144 18.261333 39.936 51.626667zM221.312 393.642667c46.506667 46.208 92.8 92.586667 139.050667 138.965333 53.12 53.290667 106.112 106.624 161.28 162.048 14.208-13.226667 26.325333-23.893333 37.717333-35.285333 87.04-86.826667 173.824-173.781333 260.778667-260.565334 9.258667-9.216 18.304-19.2 29.141333-26.197333 16.725333-10.752 34.986667-10.453333 49.706667 3.84 16.298667 15.786667 16.810667 34.986667 4.138666 53.333333-6.442667 9.386667-15.146667 17.194667-23.210666 25.301334-101.888 102.016-203.776 204.074667-305.834667 305.877333-44.8 44.672-56.661333 44.8-100.437333 1.152a193673.045333 193673.045333 0 0 1-305.92-305.834667c-9.216-9.216-18.602667-18.56-26.154667-29.141333-12.117333-17.066667-9.728-34.261333 4.48-49.066667 14.336-15.018667 32.128-16.298667 49.408-6.784 9.813333 5.376 17.792 14.336 25.856 22.357334z"  horiz-adv-x="1024" />

    
    <glyph glyph-name="tool-close1" unicode="&#58995;" d="M1024 725.333333a341.333333 341.333333 0 1 0 0-682.666666H341.333333A341.333333 341.333333 0 1 0 341.333333 725.333333h682.666667z m0-64H341.333333a277.333333 277.333333 0 0 1 0-554.666666h682.666667a277.333333 277.333333 0 1 1 0 554.666666zM128 384a213.333333 213.333333 0 1 0 426.666667 0 213.333333 213.333333 0 0 0-426.666667 0z"  horiz-adv-x="1365" />

    
    <glyph glyph-name="tool-enable2" unicode="&#58996;" d="M1024 725.333333a341.333333 341.333333 0 1 0 0-682.666666H341.333333A341.333333 341.333333 0 1 0 341.333333 725.333333h682.666667z m0-64H341.333333a277.333333 277.333333 0 0 1 0-554.666666h682.666667a277.333333 277.333333 0 1 1 0 554.666666zM1024 170.666667a213.333333 213.333333 0 1 0 0 426.666666 213.333333 213.333333 0 0 0 0-426.666666z"  horiz-adv-x="1365" />

    
    <glyph glyph-name="tool-sc-hui" unicode="&#58997;" d="M787.242667 601.856c17.792 0 32.170667-14.336 32.170666-32.128v-554.922667a107.306667 107.306667 0 0 0-107.178666-107.093333H313.173333a107.306667 107.306667 0 0 0-107.093333 107.093333V569.728a32.085333 32.085333 0 1 0 64.256 0v-554.922667c0-23.68 19.2-42.837333 42.837333-42.837333h399.104c23.68 0 42.88 19.2 42.88 42.837333V569.728c0 17.792 14.336 32.128 32.128 32.128z m124.501333 117.333333c1.194667 0 2.261333-0.128 3.413333-0.213333a81.877333 81.877333 0 0 0-4.949333-163.626667h0.042667c-27.306667 0-52.608 13.397333-67.925334 35.797334a32.170667 32.170667 0 0 0 53.12 36.224 17.621333 17.621333 0 1 1 14.464 27.52H117.76c-0.554667 0-1.194667 0.128-1.834667 0.128-0.512-0.128-1.152-0.128-1.792-0.128a17.621333 17.621333 0 1 1 14.336-27.52 32.170667 32.170667 0 0 0 53.162667-36.266667c-15.36-22.357333-40.618667-35.754667-67.712-35.754667A82.048 82.048 0 0 0 32 637.525333a82.005333 82.005333 0 0 0 82.176 81.664l1.834667-0.128c0.512 0.128 1.152 0.128 1.792 0.128zM640.256 832a32.085333 32.085333 0 1 0 0-64.298667H384.597333a32.170667 32.170667 0 0 0 0 64.298667zM469.333333 416.597333v-235.861333a42.666667 42.666667 0 1 1 85.333334 0v235.861333a42.666667 42.666667 0 0 1-85.333334 0z"  horiz-adv-x="1024" />

    
    <glyph glyph-name="down-hui" unicode="&#58998;" d="M459.392 708.266667c-0.426667-8.106667-0.128-16.298667-0.128-24.448 0-140.501333-0.085333-280.96 0-421.418667 0.042667-54.016 11.861333-75.136 42.24-73.386667 30.933333 1.834667 41.429333 18.517333 40.106667 75.52-1.664 70.186667-0.426667 140.458667-0.426667 210.688V548.693333c0 53.888 0.768 107.818667-0.469333 161.706667-0.768 33.109333-16.64 50.346667-41.386667 49.493333-24.533333-0.810667-38.144-18.261333-39.936-51.626666zM802.688 342.357333a45772.373333 45772.373333 0 0 1-139.050667-138.965333c-53.12-53.290667-106.112-106.624-161.28-162.048-14.208 13.226667-26.325333 23.893333-37.717333 35.285333-87.04 86.826667-173.824 173.781333-260.778667 260.565334-9.258667 9.216-18.304 19.2-29.141333 26.197333-16.725333 10.752-34.986667 10.453333-49.706667-3.84-16.298667-15.786667-16.810667-34.986667-4.138666-53.333333 6.442667-9.386667 15.146667-17.194667 23.210666-25.301334 101.888-102.016 203.776-204.074667 305.834667-305.877333 44.8-44.672 56.661333-44.8 100.437333-1.152 102.101333 101.802667 204.032 203.818667 305.92 305.834667 9.216 9.216 18.602667 18.56 26.154667 29.141333 12.117333 17.066667 9.728 34.261333-4.48 49.066667-14.336 15.018667-32.128 16.298667-49.408 6.784-9.813333-5.376-17.792-14.336-25.856-22.357334z"  horiz-adv-x="1024" />

    
    <glyph glyph-name="tool-shutu" unicode="&#58999;" d="M768 128a256 256 0 1 0-512 0V640a256 256 0 1 0 512 0v-512z m-48 0V640a208 208 0 0 1-416 0v-512a208 208 0 1 1 416 0zM512 800a160 160 0 1 0 0-320 160 160 0 0 0 0 320z"  horiz-adv-x="1024" />

    
    <glyph glyph-name="zhidi-hui" unicode="&#59000;" d="M828.458667 454.101333c11.392 16.469333 10.922667 33.578667-3.669334 47.786667-13.141333 12.714667-29.482667 12.970667-44.416 3.413333-9.685333-6.272-17.792-15.189333-26.026666-23.466666-77.781333-77.568-155.349333-155.306667-233.130667-232.874667-10.197333-10.197333-21.034667-19.712-33.706667-31.573333-49.322667 49.536-96.682667 97.237333-144.170666 144.853333-41.386667 41.472-82.773333 82.901333-124.288 124.202667-7.253333 7.210667-14.378667 15.189333-23.082667 19.968-15.488 8.533333-31.402667 7.381333-44.202667-5.973334-12.672-13.269333-14.848-28.714667-4.010666-43.946666 6.741333-9.386667 15.189333-17.749333 23.424-26.026667 91.050667-91.178667 182.144-182.357333 273.408-273.365333 39.168-39.04 49.706667-38.912 89.770666 1.024 91.264 91.008 182.314667 182.186667 273.365334 273.408 7.253333 7.253333 15.018667 14.250667 20.736 22.613333z m-298.24 276.565334l-0.213334 9.813333c-1.834667 26.666667-15.488 40.661333-40.106666 41.301333-24.746667 0.64-40.661333-13.098667-41.429334-39.637333-1.237333-43.093333-0.426667-86.229333-0.512-129.365333v-58.794667c0-56.192 1.28-112.384-0.426666-168.533333-1.28-45.610667 9.216-58.965333 40.234666-60.416 30.421333-1.408 42.282667 15.488 42.325334 58.709333 0.085333 112.384 0 224.725333 0 337.109333 0 6.528 0.341333 13.098667-0.085334 19.626667zM124.330667 39.381333l774.869333 0.085334a39.466667 39.466667 0 1 0 0-78.933334l-774.869333 0.853334a39.04 39.04 0 0 0 0 77.994666z"  horiz-adv-x="1024" />

    
    <glyph glyph-name="zhiding-hui" unicode="&#59013;" d="M828.458667 313.898667c11.392-16.469333 10.922667-33.578667-3.669334-47.786667-13.141333-12.714667-29.482667-12.970667-44.416-3.413333-9.685333 6.272-17.792 15.189333-26.026666 23.466666-77.781333 77.568-155.349333 155.306667-233.130667 232.874667-10.197333 10.197333-21.034667 19.712-33.706667 31.573333-49.322667-49.536-96.682667-97.237333-144.170666-144.853333-41.386667-41.472-82.773333-82.901333-124.288-124.202667-7.253333-7.210667-14.378667-15.189333-23.082667-19.968-15.488-8.533333-31.402667-7.381333-44.202667 5.973334-12.672 13.269333-14.848 28.714667-4.010666 43.946666 6.741333 9.386667 15.189333 17.749333 23.424 26.026667 91.050667 91.178667 182.144 182.357333 273.408 273.365333 39.168 39.04 49.706667 38.912 89.770666-1.024 91.264-91.008 182.314667-182.186667 273.365334-273.408 7.253333-7.253333 15.018667-14.250667 20.736-22.613333z m-298.24-276.565334l-0.213334-9.813333c-1.834667-26.666667-15.488-40.661333-40.106666-41.301333-24.746667-0.64-40.661333 13.098667-41.429334 39.637333-1.237333 43.093333-0.426667 86.229333-0.512 129.365333v58.794667c0 56.192 1.28 112.384-0.426666 168.533333-1.28 45.610667 9.216 58.965333 40.234666 60.416 30.421333 1.408 42.282667-15.488 42.325334-58.709333 0.085333-112.384 0-224.725333 0-337.109333 0-6.528 0.341333-13.098667-0.085334-19.626667zM124.330667 728.618667l774.869333-0.085334a39.424 39.424 0 1 1 0 78.890667l-774.869333-0.768a39.04 39.04 0 0 1 0-78.037333z"  horiz-adv-x="1024" />

    
    <glyph glyph-name="zhidi1" unicode="&#59014;" d="M828.458667 454.101333c11.392 16.469333 10.922667 33.578667-3.669334 47.786667-13.141333 12.714667-29.482667 12.970667-44.416 3.413333-9.685333-6.272-17.792-15.189333-26.026666-23.466666-77.781333-77.568-155.349333-155.306667-233.130667-232.874667-10.197333-10.197333-21.034667-19.712-33.706667-31.573333-49.322667 49.536-96.682667 97.237333-144.170666 144.853333-41.386667 41.472-82.773333 82.901333-124.288 124.202667-7.253333 7.210667-14.378667 15.189333-23.082667 19.968-15.488 8.533333-31.402667 7.381333-44.202667-5.973334-12.672-13.269333-14.848-28.714667-4.010666-43.946666 6.741333-9.386667 15.189333-17.749333 23.424-26.026667 91.050667-91.178667 182.144-182.357333 273.408-273.365333 39.168-39.04 49.706667-38.912 89.770666 1.024 91.264 91.008 182.314667 182.186667 273.365334 273.408 7.253333 7.253333 15.018667 14.250667 20.736 22.613333z m-298.24 276.565334l-0.213334 9.813333c-1.834667 26.666667-15.488 40.661333-40.106666 41.301333-24.746667 0.64-40.661333-13.098667-41.429334-39.637333-1.237333-43.093333-0.426667-86.229333-0.512-129.365333v-58.794667c0-56.192 1.28-112.384-0.426666-168.533333-1.28-45.610667 9.216-58.965333 40.234666-60.416 30.421333-1.408 42.282667 15.488 42.325334 58.709333 0.085333 112.384 0 224.725333 0 337.109333 0 6.528 0.341333 13.098667-0.085334 19.626667zM124.330667 39.381333l774.869333 0.085334a39.466667 39.466667 0 1 0 0-78.933334l-774.869333 0.853334a39.04 39.04 0 0 0 0 77.994666z"  horiz-adv-x="1024" />

    
    <glyph glyph-name="zhiding1" unicode="&#59015;" d="M828.458667 313.898667c11.392-16.469333 10.922667-33.578667-3.669334-47.786667-13.141333-12.714667-29.482667-12.970667-44.416-3.413333-9.685333 6.272-17.792 15.189333-26.026666 23.466666-77.781333 77.568-155.349333 155.306667-233.130667 232.874667-10.197333 10.197333-21.034667 19.712-33.706667 31.573333-49.322667-49.536-96.682667-97.237333-144.170666-144.853333-41.386667-41.472-82.773333-82.901333-124.288-124.202667-7.253333-7.210667-14.378667-15.189333-23.082667-19.968-15.488-8.533333-31.402667-7.381333-44.202667 5.973334-12.672 13.269333-14.848 28.714667-4.010666 43.946666 6.741333 9.386667 15.189333 17.749333 23.424 26.026667 91.050667 91.178667 182.144 182.357333 273.408 273.365333 39.168 39.04 49.706667 38.912 89.770666-1.024 91.264-91.008 182.314667-182.186667 273.365334-273.408 7.253333-7.253333 15.018667-14.250667 20.736-22.613333z m-298.24-276.565334l-0.213334-9.813333c-1.834667-26.666667-15.488-40.661333-40.106666-41.301333-24.746667-0.64-40.661333 13.098667-41.429334 39.637333-1.237333 43.093333-0.426667 86.229333-0.512 129.365333v58.794667c0 56.192 1.28 112.384-0.426666 168.533333-1.28 45.610667 9.216 58.965333 40.234666 60.416 30.421333 1.408 42.282667-15.488 42.325334-58.709333 0.085333-112.384 0-224.725333 0-337.109333 0-6.528 0.341333-13.098667-0.085334-19.626667zM124.330667 728.618667l774.869333-0.085334a39.424 39.424 0 1 1 0 78.890667l-774.869333-0.768a39.04 39.04 0 0 1 0-78.037333z"  horiz-adv-x="1024" />

    
    <glyph glyph-name="tool-gongxiang" unicode="&#58991;" d="M170.666667 384a128 128 0 0 0 53.674666-244.224 350.933333 350.933333 0 0 1 287.36-149.589333 350.165333 350.165333 0 0 1 261.418667 116.949333h74.794667a409.344 409.344 0 0 0-336.213334-175.872 410.282667 410.282667 0 0 0-350.208 197.077333A128 128 0 0 0 170.666667 384z m0-64a64 64 0 1 1 0.469333-128 64 64 0 0 1-0.469333 128zM522.410667 853.333333A128 128 0 1 0 402.773333 679.850667a352.512 352.512 0 0 1-223.701333-220.928H117.461333a412.330667 412.330667 0 0 0 277.76 280.448A128 128 0 0 0 522.368 853.333333z m0-64a64 64 0 1 1 0.512-128 64 64 0 0 1-0.512 128zM687.573333 716.501333a412.757333 412.757333 0 0 0 221.269334-268.586666 128 128 0 1 0-64.938667 12.245333 353.749333 353.749333 0 0 1-156.330667 189.866667z m165.76-320a64 64 0 1 1 0.469334-128 64 64 0 0 1-0.469334 128z"  horiz-adv-x="1024" />

    
    <glyph glyph-name="tool-quxiaogongxiang" unicode="&#58992;" d="M170.666667 384a128 128 0 0 0 53.674666-244.224A350.848 350.848 0 0 1 426.666667 0.682667v-60.458667a410.410667 410.410667 0 0 0-265.173334 188.117333A128 128 0 0 0 170.666667 384z m0-64a64 64 0 1 1 0.469333-128 64 64 0 0 1-0.469333 128zM522.410667 853.333333A128 128 0 1 0 402.773333 679.850667a352.512 352.512 0 0 1-223.701333-220.928H117.461333a412.330667 412.330667 0 0 0 277.76 280.448A128 128 0 0 0 522.368 853.333333z m165.12-136.832a412.757333 412.757333 0 0 0 215.296-247.552h-62.165334l-1.578666 4.309334a353.792 353.792 0 0 1-139.392 169.386666l-12.117334 7.381334V716.501333zM522.453333 789.333333a64 64 0 1 1 0.512-128 64 64 0 0 1-0.512 128zM847.274667 106.666667l123.178666 123.178666c14.506667 14.506667 14.506667 43.477333 0 57.941334-14.506667 14.506667-43.477333 14.506667-57.941333 0L789.333333 164.608l-123.178666 123.178667c-14.506667 14.506667-43.477333 14.506667-57.941334 0-14.506667-14.506667-14.506667-43.477333 0-57.941334l123.178667-123.178666-123.178667-123.178667c-14.506667-14.506667-14.506667-43.477333 0-57.941333 14.506667-14.506667 43.477333-14.506667 57.941334 0l123.178666 123.178666 123.178667-123.178666c14.506667-14.506667 43.477333-14.506667 57.941333 0 14.506667 14.506667 14.506667 43.477333 0 57.941333L847.274667 106.666667z"  horiz-adv-x="1024" />

    
    <glyph glyph-name="down2" unicode="&#58983;" d="M459.392 708.266667c-0.426667-8.106667-0.128-16.298667-0.128-24.448 0-140.501333-0.085333-280.96 0-421.418667 0.042667-54.016 11.861333-75.136 42.24-73.386667 30.933333 1.834667 41.429333 18.517333 40.106667 75.52-1.664 70.186667-0.426667 140.458667-0.426667 210.688V548.693333c0 53.888 0.768 107.818667-0.469333 161.706667-0.768 33.109333-16.64 50.346667-41.386667 49.493333-24.533333-0.810667-38.144-18.261333-39.936-51.626666zM802.688 342.357333a45772.373333 45772.373333 0 0 1-139.050667-138.965333c-53.12-53.290667-106.112-106.624-161.28-162.048-14.208 13.226667-26.325333 23.893333-37.717333 35.285333-87.04 86.826667-173.824 173.781333-260.778667 260.565334-9.258667 9.216-18.304 19.2-29.141333 26.197333-16.725333 10.752-34.986667 10.453333-49.706667-3.84-16.298667-15.786667-16.810667-34.986667-4.138666-53.333333 6.442667-9.386667 15.146667-17.194667 23.210666-25.301334 101.888-102.016 203.776-204.074667 305.834667-305.877333 44.8-44.672 56.661333-44.8 100.437333-1.152 102.101333 101.802667 204.032 203.818667 305.92 305.834667 9.216 9.216 18.602667 18.56 26.154667 29.141333 12.117333 17.066667 9.728 34.261333-4.48 49.066667-14.336 15.018667-32.128 16.298667-49.408 6.784-9.813333-5.376-17.792-14.336-25.856-22.357334z"  horiz-adv-x="1024" />

    
    <glyph glyph-name="tool-fabushangxian" unicode="&#58984;" d="M881.92 853.333333A99.541333 99.541333 0 0 0 981.333333 753.92v-132.266667a33.109333 33.109333 0 1 0-66.261333 0v132.266667a33.237333 33.237333 0 0 1-33.109333 33.152H142.037333a33.237333 33.237333 0 0 1-33.109333-33.109333v-739.925334c0-18.218667 14.933333-33.109333 33.109333-33.109333h173.525334a33.109333 33.109333 0 1 0 0-66.261333H142.037333A99.541333 99.541333 0 0 0 42.666667 14.08V753.92A99.541333 99.541333 0 0 0 142.08 853.333333h739.84zM320 554.666667a64 64 0 1 0 0-128 64 64 0 0 0 0 128z m213.333333 0a64 64 0 1 0 0-128 64 64 0 0 0 0 128z m213.333334 0a64 64 0 1 0 0-128 64 64 0 0 0 0 128zM970.24 258.432l-341.973333-341.973333a37.12 37.12 0 0 0-26.197334-11.392 37.930667 37.930667 0 0 0-34.218666 10.24L352.426667 131.925333a37.845333 37.845333 0 0 0 0 53.589334l18.261333 18.218666a37.845333 37.845333 0 0 0 53.546667 0l173.269333-173.226666 299.776 299.776a37.845333 37.845333 0 0 0 53.546667 0l19.413333-18.261334a37.845333 37.845333 0 0 0 0-53.546666z"  horiz-adv-x="1024" />

    
    <glyph glyph-name="tool-fabuxiaxian" unicode="&#58985;" d="M881.92 853.333333A99.541333 99.541333 0 0 0 981.333333 753.92v-132.266667a33.109333 33.109333 0 1 0-66.261333 0v132.266667a33.237333 33.237333 0 0 1-33.109333 33.152H142.037333a33.237333 33.237333 0 0 1-33.109333-33.109333v-739.925334c0-18.218667 14.933333-33.109333 33.109333-33.109333h173.525334a33.109333 33.109333 0 1 0 0-66.261333H142.037333A99.541333 99.541333 0 0 0 42.666667 14.08V753.92A99.541333 99.541333 0 0 0 142.08 853.333333h739.84zM320 554.666667a64 64 0 1 0 0-128 64 64 0 0 0 0 128z m213.333333 0a64 64 0 1 0 0-128 64 64 0 0 0 0 128z m213.333334 0a64 64 0 1 0 0-128 64 64 0 0 0 0 128zM847.274667 106.666667l123.178666 123.178666c14.506667 14.506667 14.506667 43.477333 0 57.941334-14.506667 14.506667-43.477333 14.506667-57.941333 0L789.333333 164.608l-123.178666 123.178667c-14.506667 14.506667-43.477333 14.506667-57.941334 0-14.506667-14.506667-14.506667-43.477333 0-57.941334l123.178667-123.178666-123.178667-123.178667c-14.506667-14.506667-14.506667-43.477333 0-57.941333 14.506667-14.506667 43.477333-14.506667 57.941334 0l123.178666 123.178666 123.178667-123.178666c14.506667-14.506667 43.477333-14.506667 57.941333 0 14.506667 14.506667 14.506667 43.477333 0 57.941333L847.274667 106.666667z"  horiz-adv-x="1024" />

    
    <glyph glyph-name="tool-sc1" unicode="&#58989;" d="M787.242667 601.856c17.792 0 32.170667-14.336 32.170666-32.128v-554.922667a107.306667 107.306667 0 0 0-107.178666-107.093333H313.173333a107.306667 107.306667 0 0 0-107.093333 107.093333V569.728a32.085333 32.085333 0 1 0 64.256 0v-554.922667c0-23.68 19.2-42.837333 42.837333-42.837333h399.104c23.68 0 42.88 19.2 42.88 42.837333V569.728c0 17.792 14.336 32.128 32.128 32.128z m124.501333 117.333333c1.194667 0 2.261333-0.128 3.413333-0.213333a81.877333 81.877333 0 0 0-4.949333-163.626667h0.042667c-27.306667 0-52.608 13.397333-67.925334 35.797334a32.170667 32.170667 0 0 0 53.12 36.224 17.621333 17.621333 0 1 1 14.464 27.52H117.76c-0.554667 0-1.194667 0.128-1.834667 0.128-0.512-0.128-1.152-0.128-1.792-0.128a17.621333 17.621333 0 1 1 14.336-27.52 32.170667 32.170667 0 0 0 53.162667-36.266667c-15.36-22.357333-40.618667-35.754667-67.712-35.754667A82.048 82.048 0 0 0 32 637.525333a82.005333 82.005333 0 0 0 82.176 81.664l1.834667-0.128c0.512 0.128 1.152 0.128 1.792 0.128zM640.256 832a32.085333 32.085333 0 1 0 0-64.298667H384.597333a32.170667 32.170667 0 0 0 0 64.298667zM469.333333 416.597333v-235.861333a42.666667 42.666667 0 1 1 85.333334 0v235.861333a42.666667 42.666667 0 0 1-85.333334 0z"  horiz-adv-x="1024" />

    
    <glyph glyph-name="up2" unicode="&#58990;" d="M564.608 27.733333c0.426667 8.106667 0.128 16.298667 0.128 24.448 0 140.501333 0.085333 280.96 0 421.418667-0.042667 54.016-11.861333 75.136-42.24 73.386667-30.933333-1.834667-41.429333-18.517333-40.106667-75.52 1.664-70.186667 0.426667-140.458667 0.426667-210.688v-73.514667c0-53.888-0.768-107.818667 0.469333-161.706667 0.768-33.109333 16.64-50.346667 41.386667-49.493333 24.533333 0.810667 38.144 18.261333 39.936 51.626667zM221.312 393.642667c46.506667 46.208 92.8 92.586667 139.050667 138.965333 53.12 53.290667 106.112 106.624 161.28 162.048 14.208-13.226667 26.325333-23.893333 37.717333-35.285333 87.04-86.826667 173.824-173.781333 260.778667-260.565334 9.258667-9.216 18.304-19.2 29.141333-26.197333 16.725333-10.752 34.986667-10.453333 49.706667 3.84 16.298667 15.786667 16.810667 34.986667 4.138666 53.333333-6.442667 9.386667-15.146667 17.194667-23.210666 25.301334-101.888 102.016-203.776 204.074667-305.834667 305.877333-44.8 44.672-56.661333 44.8-100.437333 1.152a193673.045333 193673.045333 0 0 1-305.92-305.834667c-9.216-9.216-18.602667-18.56-26.154667-29.141333-12.117333-17.066667-9.728-34.261333 4.48-49.066667 14.336-15.018667 32.128-16.298667 49.408-6.784 9.813333 5.376 17.792 14.336 25.856 22.357334z"  horiz-adv-x="1024" />

    
    <glyph glyph-name="fuwuqi-zhengchang" unicode="&#58880;" d="M512 747.355429a361.691429 361.691429 0 0 0 185.819429-51.035429 364.891429 364.891429 0 0 0 143.890285-159.396571A362.185143 362.185143 0 0 0 875.337143 384a362.112 362.112 0 0 0-30.482286-145.901714 364.690286 364.690286 0 0 0-117.632-146.889143A361.819429 361.819429 0 0 0 512 20.626286c-54.272-0.054857-107.885714 12.068571-156.836571 35.529143a364.525714 364.525714 0 0 0-136.064 112.786285A361.801143 361.801143 0 0 0 148.644571 384a363.52 363.52 0 0 0 14.372572 101.577143 362.459429 362.459429 0 0 0 68.918857 129.92 364.8 364.8 0 0 0 118.308571 93.970286A361.892571 361.892571 0 0 0 512 747.355429z m184.32-442.331429H327.68a20.48 20.48 0 0 1-20.48-20.48v-61.44c0-11.337143 9.161143-20.48 20.48-20.48h368.64a20.48 20.48 0 0 1 20.48 20.48v61.44a20.48 20.48 0 0 1-20.48 20.48zM570.514286 275.748571v-43.885714h-29.257143v43.885714h29.257143z m58.514285 0v-43.885714h-29.257142v43.885714h29.257142z m58.514286 0v-43.885714H658.285714v43.885714h29.257143z m-321.828571 0v-29.257142h-29.257143v29.257142H365.714286z m330.605714 160.914286H327.68a20.48 20.48 0 0 1-20.48-20.48v-61.44c0-11.318857 9.161143-20.48 20.48-20.48h368.64a20.48 20.48 0 0 1 20.48 20.48v61.44a20.48 20.48 0 0 1-20.48 20.48z m-125.805714-29.257143v-43.885714h-29.257143v43.885714h29.257143z m58.514285 0v-43.885714h-29.257142v43.885714h29.257142z m58.514286 0v-43.885714H658.285714v43.885714h29.257143z m-321.828571 0v-29.257143h-29.257143v29.257143H365.714286z m330.605714 160.914286H327.68a20.48 20.48 0 0 1-20.48-20.48v-61.44c0-11.318857 9.161143-20.48 20.48-20.48h368.64a20.48 20.48 0 0 1 20.48 20.48v61.44a20.48 20.48 0 0 1-20.48 20.48z m-155.062857-29.257143l0.036571-0.036571H570.514286v-43.849143h-29.257143v43.885714z m87.771428-0.036571v-43.849143h-29.257142v43.849143h29.257142z m58.514286 0v-43.849143H658.285714v43.849143h29.257143z m-351.085714 0.036571l0.036571-0.036571H365.714286v-29.220572h-29.257143v29.257143zM512-61.933714C265.691429-61.933714 66.066286 137.709714 66.066286 384 66.066286 630.308571 265.709714 829.933714 512 829.933714c246.308571 0 445.933714-199.643429 445.933714-445.933714 0-246.308571-199.643429-445.933714-445.933714-445.933714z m0 33.042285c228.041143 0 412.891429 184.850286 412.891429 412.891429C924.891429 612.041143 740.041143 796.891429 512 796.891429 283.958857 796.891429 99.108571 612.041143 99.108571 384c0-228.041143 184.850286-412.891429 412.891429-412.891429zM512-128C229.229714-128 0 101.229714 0 384S229.229714 896 512 896s512-229.229714 512-512-229.229714-512-512-512z m0 33.042286c264.521143 0 478.957714 214.418286 478.957714 478.957714C990.957714 648.521143 776.539429 862.957714 512 862.957714 247.478857 862.957714 33.042286 648.539429 33.042286 384c0-264.521143 214.418286-478.957714 478.957714-478.957714z"  horiz-adv-x="1024" />

    
    <glyph glyph-name="fuwuqi-zongshu" unicode="&#58881;" d="M368.896 683.593143h-35.492571v-70.491429h35.492571v70.491429z m71.113143 0H404.48v-70.491429h35.510857v70.491429z m248.685714-17.590857H528.822857v-35.291429h159.890286v35.291429z m-319.798857-158.701715h-35.492571v-70.491428h35.492571v70.491428z m71.113143 0H404.48v-70.491428h35.510857v70.491428z m248.685714-17.700571H528.822857v-35.291429h159.890286v35.291429z m-319.798857-158.701714h-35.492571v-70.491429h35.492571v70.491429z m71.113143 0H404.48v-70.491429h35.510857v70.491429z m248.685714-17.590857H528.822857v-35.291429h159.890286v35.291429z m-319.798857-158.72h-35.492571v-70.582858h35.492571v70.582858z m71.113143 0H404.48v-70.582858h35.510857v70.582858z m248.685714-17.682286H528.822857v-35.291429h159.890286v35.291429z m53.302857 617.289143H279.990857c-10.697143 0-17.792-7.094857-17.792-17.590857v-705.408c0-10.605714 7.094857-17.590857 17.792-17.590858h462.006857c10.697143 0 17.810286 7.094857 17.810286 17.590858V736.603429c0 10.496-7.113143 17.590857-17.810286 17.590857z m-17.700571-705.499429H297.801143V189.805714H724.297143v-141.110857z m0 176.402286H297.801143v141.110857H724.297143v-141.110857z m0 176.402286H297.801143v141.092571H724.297143v-141.092571z m0 176.292571H297.801143V718.902857H724.297143v-141.110857z m-604.196572 17.700571v-423.296c0-10.605714 7.094857-17.590857 17.792-17.590857h88.813715v35.291429H155.593143v70.509714h71.113143v35.291429H155.593143v70.509714h71.113143v35.291429H155.593143v70.491428h71.113143v35.309714H155.593143v70.491429h71.113143v35.291429H137.874286c-10.697143 0-17.792-7.076571-17.792-17.590858z m764.105143 17.609143h-88.813714v-35.291428h71.113143v-70.509715h-71.113143v-35.291428h71.113143v-70.509714h-71.113143v-35.291429h71.113143v-70.509714h-71.113143v-35.291429h71.113143v-70.509714h-71.113143v-35.291429h88.813714c10.697143 0 17.792 7.094857 17.792 17.590857v423.314286c0 10.496-7.094857 17.590857-17.792 17.590857z"  horiz-adv-x="1024" />

    
    <glyph glyph-name="rep_icon" unicode="&#58980;" d="M815.388444 3.072h5.688889c-4.494222 0-5.688889-3.413333-5.688889 0z m0 1.706667v416.995555a47.388444 47.388444 0 1 0 94.833778 0v-416.995555c0-51.768889-40.391111-94.833778-91.875555-94.833778H196.152889c-51.427556 0-91.875556 43.064889-91.875556 94.776889V763.278222c0 51.712 40.391111 94.776889 91.875556 94.776889h450.787555a47.388444 47.388444 0 1 0 0-94.776889H199.111111v-758.556444h616.277333z m-613.546666-1.706667c0-3.413333-1.137778 0-5.688889 0h5.688889z m0 757.304889h-5.688889c4.494222 0 5.688889 3.413333 5.688889 0z m573.895111-133.176889l-102.570667 102.513778v-102.513778h102.570667z m-102.570667-94.833778c-52.337778 0-94.776889 42.439111-94.776889 94.833778V786.944a71.111111 71.111111 0 0 0 121.400889 50.289778l183.466667-183.466667a71.111111 71.111111 0 0 0-50.289778-121.400889h-159.800889zM341.333333 431.388444a47.388444 47.388444 0 1 0 0 94.833778H483.555556a47.388444 47.388444 0 0 0 0-94.833778H341.333333z m0-236.999111a47.388444 47.388444 0 0 0 0 94.776889h331.832889a47.388444 47.388444 0 0 0 0-94.776889H341.333333z"  horiz-adv-x="1024" />

    
    <glyph glyph-name="trend_icon" unicode="&#58973;" d="M1237.575616 896c98.567969 0 178.882611-73.013311 186.183942-167.930615 7.301331-94.917304-58.410649-178.882611-156.978618-197.135938-21.903993-3.650666-43.807986-3.650666-65.711979 0-7.301331 3.650666-10.951997 0-14.602663-7.301331L978.378363 173.168224c-7.301331-10.951997 0-14.602662 7.301331-18.253327 47.458652-36.506655 69.362645-87.615973 62.061314-146.026622-7.301331-62.061314-43.807986-105.8693-102.218635-127.773293-62.061314-21.903993-135.074625-3.650666-178.882611 47.458652-43.807986 51.109317-47.458652 124.122628-14.602662 178.882611 7.301331 10.951997 7.301331 14.602662-3.650666 21.903993-98.567969 69.362645-193.485273 142.375956-292.053242 211.738601-7.301331 7.301331-14.602662 7.301331-21.903994 3.650665-21.903993-10.951997-47.458652-14.602662-69.362645-10.951996-10.951997 0-14.602662-3.650666-18.253327-10.951997-29.205324-51.109317-58.410649-98.567969-87.615973-149.677287-7.301331-10.951997-7.301331-14.602662 0-25.554658 32.85599-40.157321 36.506655-87.615973 10.951996-131.42396-21.903993-43.807986-73.013311-69.362645-120.471962-62.061314-51.109317 7.301331-87.615973 36.506655-102.218635 83.965308-29.205324 87.615973 47.458652 171.58128 138.72529 153.327952 10.951997-3.650666 14.602662 0 18.253328 10.951997 25.554659 47.458652 54.759983 94.917304 83.965307 142.375955 7.301331 10.951997 7.301331 14.602662-3.650665 25.554659-43.807986 40.157321-58.410649 102.218635-32.85599 156.978618 25.554659 54.759983 80.314642 87.615973 138.72529 80.314642 58.410649-3.650666 105.8693-43.807986 124.122628-98.56797 10.951997-36.506655 7.301331-73.013311-14.602662-105.8693-3.650666-7.301331-3.650666-10.951997 3.650666-18.253328 98.567969-73.013311 197.135939-142.375956 292.053242-215.389266 7.301331-3.650666 10.951997-7.301331 18.253328-3.650666 25.554659 14.602662 58.410649 21.903993 87.615973 18.253328 10.951997 0 14.602662 3.650666 21.903993 10.951997 69.362645 116.821297 135.074625 229.991929 204.43727 346.813225 7.301331 10.951997 7.301331 14.602662-3.650666 21.903993-62.061314 47.458652-87.615973 131.423959-62.061314 204.43727C1087.898329 844.890683 1157.260974 896 1237.575616 896z"  horiz-adv-x="1460" />

    
    <glyph glyph-name="accounted_icon" unicode="&#58974;" d="M969.0112 407.552A443.7504 443.7504 0 0 1 525.6192 851.6608v-466.432h443.648c0.3584 7.936-0.256 15.2064-0.256 22.4256zM559.7696 419.328v396.8c0-3.584 85.504-13.9776 125.5936-31.0272a406.7328 406.7328 0 0 0 129.9456-88.0128 407.3472 407.3472 0 0 0 119.1424-277.76H559.7696zM507.648-30.464c-218.4192 0-395.6224 176.7936-395.6224 395.2128 0 200.704 149.6576 366.1312 343.04 391.68v56.32a450.816 450.816 0 0 1-398.9504-448.3584c0-249.2928 202.1376-450.7648 451.4816-450.7648 228.4544 0 417.3312 169.984 447.2832 390.7072h-56.5248c-29.4912-189.952-193.1264-334.7968-390.7072-334.7968z"  horiz-adv-x="1024" />

    
    <glyph glyph-name="rank_icon" unicode="&#58975;" d="M587.088 610.992h-141.856c-33.44 0-60.8-27.36-60.8-60.8v-608c0-33.44 27.36-60.8 60.8-60.8h141.856c33.44 0 60.8 27.36 60.8 60.8v608a60.64 60.64 0 0 1-60.8 60.8z m-20.256-648.544h-101.344V529.92h101.344v-567.472zM269.92 246.688H128.048c-33.44 0-60.8-27.36-60.8-60.8v-243.2c0-33.44 27.36-60.8 60.8-60.8h141.872c33.44 0 60.8 27.36 60.8 60.8v243.2c0 33.44-27.36 60.8-60.8 60.8z m-20.272-284.24H148.32V165.12h101.328v-202.672z m654.112 405.344h-141.872c-33.44 0-60.8-27.36-60.8-60.8v-364.8c0-33.44 27.36-60.8 60.8-60.8h141.872c33.44 0 60.8 27.36 60.8 60.8v364.8a60.64 60.64 0 0 1-60.8 60.8z m-20.272-405.344h-101.328V286.72h101.328v-324.272zM515.648 722.96l-69.408-50.672 26.352 81.584-69.424 50.656h86.144L515.648 886.112l26.352-81.584h86.128L558.72 753.872l26.352-81.584zM198.48 377.408l-69.408-49.648 26.848 81.072-69.92 50.656h86.128l31.424 81.584 21.776-81.584h86.144l-69.92-50.656 26.848-81.072zM831.312 499.52l-69.92-50.672 26.848 82.08-69.92 50.672h86.128l11.664 82.08 41.536-82.08h86.144l-69.424-50.672 26.352-82.08z"  horiz-adv-x="1024" />

    
    <glyph glyph-name="score_icon" unicode="&#58976;" d="M512-115.591529C236.092235-115.591529 12.408471 108.092235 12.408471 384V827.708235A55.868235 55.868235 0 0 0 68.291765 883.576471h887.41647a55.868235 55.868235 0 0 0 55.868236-55.868236V384c0-275.907765-223.668706-499.591529-499.576471-499.591529zM944.534588 794.172235c0 12.348235-10.014118 22.362353-22.362353 22.362353H101.827765c-12.348235 0-22.362353-10.014118-22.362353-22.362353V384c0-238.878118 193.656471-432.534588 432.534588-432.534588S944.534588 145.121882 944.534588 384V794.172235zM746.706824 626.522353H310.814118V190.644706a33.536 33.536 0 0 0-67.056942 0V660.058353c0 18.522353 14.998588 33.536 33.520942 33.536h469.413647a33.536 33.536 0 0 0 0-67.072zM375.898353 479.006118h139.745882v22.347294h-137.758117a33.536 33.536 0 0 0 0 67.056941h137.743058a33.536 33.536 0 0 0 67.056942 0h138.315294a33.536 33.536 0 1 0 0-67.056941h-138.315294v-22.347294h139.745882a33.490824 33.490824 0 0 0 33.490824-33.505883v-0.060235c0-2.861176-0.376471-5.692235-1.114353-8.448v-164.743529a33.536 33.536 0 1 0-67.056942 0v139.685647h-105.065411v-80.896a145.332706 145.332706 0 0 0 112.188235-141.477647h-0.240941a33.520941 33.520941 0 0 0-67.026824 0.496941c0 0.632471 0.060235 1.264941 0.090353 1.897412a78.215529 78.215529 0 0 1-156.400941-2.394353h-0.256a33.520941 33.520941 0 1 0-66.650353 5.330823 145.332706 145.332706 0 0 0 111.239529 135.936v81.106824h-106.164705v-139.700706a33.536 33.536 0 0 0-67.072 0V445.500235a33.490824 33.490824 0 0 0 33.505882 33.505883z"  horiz-adv-x="1024" />

    
    <glyph glyph-name="Acc_icon" unicode="&#58977;" d="M503.109818-112.065939c237.211152 0 430.436848 188.834909 437.449697 424.339394a13.079273 13.079273 0 0 1-12.660363 13.34303H78.661818a13.079273 13.079273 0 0 1-13.032727-13.017212v-0.341334c7.043879-235.597576 200.254061-424.339394 437.480727-424.339394zM503.109818-117.248c-247.358061 0-447.953455 200.579879-447.953454 447.922424 0 5.647515 4.608 10.255515 10.255515 10.255515h875.380363c5.647515 0 10.24-4.608 10.24-10.24 0-247.466667-200.455758-447.937939-447.922424-447.937939zM86.481455 320.325818a10.27103 10.27103 0 0 1-10.24-10.24v-0.589576c11.046788-225.931636 198.283636-406.372848 426.868363-406.372848 228.569212 0 415.914667 180.441212 426.852849 406.372848a10.302061 10.302061 0 0 1-9.774546 10.829576H86.481455zM504.133818-78.677333c-229.376 0-416.380121 181.139394-425.937454 408.203636h-0.465455c0-235.473455 190.929455-426.402909 426.402909-426.402909 235.48897 0 425.95297 170.883879 425.95297 406.372848l-3.568485 1.396364c-9.557333-226.986667-193.008485-389.585455-422.384485-389.585454zM503.109818 358.663758V820.76703c0 6.221576-5.073455 11.29503-11.29503 11.295031h-0.232727C231.703273 825.949091 22.807273 613.267394 22.807273 351.868121a478.611394 478.611394 0 0 1 52.28606-218.096485 11.419152 11.419152 0 0 1 15.204849-4.949333c0.108606 0 0.108606 0.124121 0.217212 0.124121l406.714182 219.694546a11.419152 11.419152 0 0 1 5.880242 10.022788zM85.798788 113.726061a11.124364 11.124364 0 0 0-15.204849 4.623515 492.109576 492.109576 0 0 0-58.957575 233.642666c0 131.258182 51.122424 254.712242 143.93406 347.632485 92.811636 92.935758 216.265697 143.949576 347.648 143.949576 6.206061 0 11.279515-5.073455 11.279515-11.29503v-480.287031a11.326061 11.326061 0 0 0-5.864727-9.914181L85.798788 113.741576zM491.830303 809.270303c0 6.206061-5.073455 11.279515-11.29503 11.279515h-0.574061c-247.932121-12.086303-445.874424-217.63103-445.874424-468.557576 0-70.004364 15.670303-139.201939 45.831757-202.426181 2.637576-5.647515 9.448727-7.943758 14.972122-5.290667 0.108606 0.108606 0.341333 0.108606 0.465454 0.217212L485.934545 355.576242a11.108848 11.108848 0 0 1 5.864728 9.898667V809.270303zM929.978182 307.882667l-465.687273 10.364121 4.033939 2.187636h450.823758l4.251152-0.682666c4.375273-1.861818 5.538909-4.840727 6.454303-7.726546l0.108606-4.142545zM556.885333 399.546182h464.058182c6.206061 0 11.170909 4.964848 11.170909 11.170909v0.341333C1025.086061 664.157091 820.689455 867.979636 567.233939 873.968485a11.108848 11.108848 0 0 1-11.403636-10.938182v-463.375515c0.341333 0 0.682667 0 1.039515-0.108606zM1026.575515 399.546182h0.698182C1026.234182 657.95103 819.510303 867.87103 562.408727 873.968485a11.108848 11.108848 0 0 1-11.403636-10.938182v-1.954909c0-6.11297 4.840727-10.938182 10.938182-11.170909 249.31297-5.523394 451.397818-202.891636 464.632242-450.358303zM1043.502545 399.546182a11.170909 11.170909 0 0 0-11.046787-11.170909h-476.625455a11.170909 11.170909 0 0 0-11.170909 11.170909V874.201212c0 6.097455 4.964848 11.170909 11.170909 11.170909h0.248242c129.877333 0 252.183273-50.424242 344.188122-142.211879 92.004848-91.772121 142.661818-213.721212 143.235878-343.61406z m-465.206303 11.279515h430.902303c6.206061 0 11.170909 5.073455 11.17091 11.170909v0.574061c-6.11297 115.153455-53.899636 222.595879-136.223031 304.577939-82.338909 81.997576-190.014061 129.551515-305.276121 135.074909a11.201939 11.201939 0 0 1-11.74497-10.596848v-429.614546c0-6.11297 4.964848-11.062303 11.170909-11.170909zM498.734545 320.558545L144.058182 119.497697l-11.977697 19.114667 336.244363 181.82206zM491.830303 365.118061c0-4.499394-2.653091-8.409212-6.811151-10.022788L96.054303 144.833939c-4.732121-2.544485-11.869091-3.227152-16.477091 5.290667l-2.761697 6.11297 415.123394 216.482909v-7.602424h-0.124121zM567.125333 425.332364H1020.586667v-14.506667H567.125333z"  horiz-adv-x="1055" />

    
    <glyph glyph-name="results_icon" unicode="&#58978;" d="M795.776-113.408H228.224a228.096 228.096 0 0 0-227.84 227.84V509.184a228.096 228.096 0 0 0 227.84 227.84h567.552a228.096 228.096 0 0 0 227.84-227.84v-394.752a228.096 228.096 0 0 0-227.84-227.84zM228.224 672.96a163.968 163.968 0 0 1-163.84-163.84v-394.688a163.968 163.968 0 0 1 163.84-163.84h567.552a163.968 163.968 0 0 1 163.84 163.84V509.184a164.032 164.032 0 0 1-163.84 163.84H228.224z m63.808-527.36a30.016 30.016 0 1 0-60.032 0V464.64a30.016 30.016 0 1 0 60.032 0v-319.168z m483.968-11.52a27.456 27.456 0 0 0-27.456-27.392H259.456a27.456 27.456 0 0 0 0 54.848h489.088c15.168 0 27.456-12.224 27.456-27.392zM488.32 382.272a28.224 28.224 0 0 1-40.128 0.192L360.896 295.552a28.672 28.672 0 0 1-0.192-40.384 28.224 28.224 0 0 1 40.128-0.256l87.232 86.912a28.736 28.736 0 0 1 0.192 40.32z m91.072-127.104a28.288 28.288 0 0 1 0 40.128L492.288 382.08a28.608 28.608 0 0 1-48.768-19.968c0-7.488 2.944-14.72 8.32-20.032l87.168-86.976a28.736 28.736 0 0 1 40.448-0.064z m92.864 127.104a28.224 28.224 0 0 1-40.128 0.192L544.896 295.552a28.672 28.672 0 0 1-0.192-40.384 28.224 28.224 0 0 1 40.064-0.256l87.296 86.912a28.736 28.736 0 0 1 0.256 40.32z m72.064 71.808a28.224 28.224 0 0 1-40.192 0.192L616.96 367.36a28.672 28.672 0 0 1 19.84-48.768c7.488-0.064 14.72 2.88 20.032 8.192l87.296 86.912a28.736 28.736 0 0 1 0.256 40.384zM64.96 524.096h-64c0 56.512-0.64 133.184-0.64 133.184a224.32 224.32 0 0 0 224 224.256h150.72c136.128 0 214.272-73.408 214.272-201.536h-64c0 92.544-49.152 137.6-150.272 137.6H224.384a160.192 160.192 0 0 1-160-160s0.64-76.8 0.64-133.504z"  horiz-adv-x="1024" />

    
    <glyph glyph-name="jianchu-icon" unicode="&#58979;" d="M445.997176 183.792941a205.552941 205.552941 0 0 0-72.432941 41.86353 209.317647 209.317647 0 0 0-70.324706 156.581647c0.030118 22.452706 3.568941 44.769882 10.465883 66.138353L57.916235 596.178824c-105.321412-222.102588-34.484706-487.800471 167.454118-627.952942a521.622588 521.622588 0 0 1 72.839529-41.863529 496.504471 496.504471 0 0 1 172.483765-46.471529V177.091765a167.454118 167.454118 0 0 0-24.696471 6.686117zM726.482824 836.879059A496.504471 496.504471 0 0 1 554.420706 884.600471v-297.231059a167.454118 167.454118 0 0 0 24.69647-6.701177l147.365648 256.210824zM78.426353 535.868235l187.136-108.001882a240.293647 240.293647 0 0 1-4.186353-45.628235 251.181176 251.181176 0 0 1 83.727059-187.979294 251.181176 251.181176 0 0 1 83.727059-48.971295v-216.018823a455.890824 455.890824 0 0 0-112.188236 34.334118 475.151059 475.151059 0 0 0-55.265882 31.804235l-11.715765 10.059294a460.498824 460.498824 0 0 0-197.601882 376.771765 452.608 452.608 0 0 0 26.368 153.630117M57.916235 596.178824c-105.321412-222.102588-34.484706-487.800471 167.454118-627.952942a521.622588 521.622588 0 0 1 72.839529-41.863529 496.504471 496.504471 0 0 1 172.483765-46.471529V177.091765a167.454118 167.454118 0 0 0-24.696471 6.686117 205.552941 205.552941 0 0 0-72.432941 41.86353 209.317647 209.317647 0 0 0-70.324706 156.581647c0.030118 22.452706 3.568941 44.769882 10.465883 66.138353L57.916235 596.178824zM799.322353 794.593882L651.550118 538.804706a209.317647 209.317647 0 0 0 70.324706-156.566588 216.440471 216.440471 0 0 0-10.465883-66.153412 209.317647 209.317647 0 0 0-156.988235-138.571294v-297.637647A502.362353 502.362353 0 0 1 924.912941 93.786353a452.126118 452.126118 0 0 1 41.86353 72.854588c105.336471 222.087529 34.484706 487.785412-167.454118 627.952941zM811.474824 732.220235a460.498824 460.498824 0 0 0 161.581176-349.982117 454.640941 454.640941 0 0 0-41.863529-196.352 414.448941 414.448941 0 0 0-41.86353-66.56 457.155765 457.155765 0 0 0-293.044706-190.057412V145.709176a251.181176 251.181176 0 0 1 154.895059 157.816471 251.181176 251.181176 0 0 1-47.721412 241.558588l108.016942 187.136m-12.152471 62.373647L651.550118 538.804706a209.317647 209.317647 0 0 0 70.324706-156.566588 216.440471 216.440471 0 0 0-10.465883-66.153412 209.317647 209.317647 0 0 0-156.988235-138.571294v-297.637647A502.362353 502.362353 0 0 1 924.912941 93.786353a452.126118 452.126118 0 0 1 41.86353 72.854588c105.336471 222.087529 34.484706 487.785412-167.454118 627.952941zM596.284235 835.207529c23.943529-4.216471 47.480471-10.526118 70.324706-18.838588l-70.324706-121.825882v140.649412M554.420706 884.615529v-297.231058a167.454118 167.454118 0 0 0 24.69647-6.701177l147.365648 256.210824A496.504471 496.504471 0 0 1 554.420706 884.600471zM100.201412 669.003294l255.789176-147.787294a206.381176 206.381176 0 0 0 114.703059 65.731765V884.600471A502.362353 502.362353 0 0 1 100.201412 669.003294zM428.830118 835.207529V618.767059a247.416471 247.416471 0 0 1-79.540706-45.628235l-186.714353 108.423529A457.577412 457.577412 0 0 0 428.830118 835.207529m41.863529 49.392942A502.362353 502.362353 0 0 1 100.201412 669.003294l255.789176-147.787294a206.381176 206.381176 0 0 0 114.703059 65.731765V884.600471z"  horiz-adv-x="1024" />

    
    <glyph glyph-name="tool-home" unicode="&#58972;" d="M723.2 190.378667H312.533333c-17.621333 0-29.354667-11.733333-29.354666-29.312 0-17.578667 11.776-29.354667 29.354666-29.354667h410.666667c17.621333 0 29.354667 11.776 29.354667 29.354667 0 17.621333-17.621333 29.354667-29.354667 29.354666zM975.488 419.2l-440.021333 422.4c-11.733333 11.733333-35.2 11.733333-46.933334 0l-434.133333-422.4C42.666667 413.354667 42.666667 407.466667 42.666667 395.733333v-398.933333C42.666667-50.133333 83.754667-85.333333 130.688-85.333333h762.666667c46.933333 0 87.978667 35.2 87.978666 82.133333v398.933333c0 11.733333 0 17.578667-5.845333 23.466667z m-82.133333-445.866667H130.688c-17.621333 0-29.354667 11.733333-29.354667 23.466667v350.72a85.333333 85.333333 0 0 0 26.325334 61.696L512 777.088l384.341333-367.872a85.333333 85.333333 0 0 0 26.325334-61.653333v-350.762667c0-11.733333-11.733333-23.466667-29.354667-23.466667z"  horiz-adv-x="1024" />

    
    <glyph glyph-name="perform_icon" unicode="&#58971;" d="M307.2 807.0656a102.4 102.4 0 0 0 56.832-17.2032l480.9728-320.6656a102.4 102.4 0 0 0 0-170.3936l-481.024-320.6656A102.4 102.4 0 0 0 204.8 63.3344V704.6656a102.4 102.4 0 0 0 102.4 102.4z m25.6-109.1584a51.2 51.2 0 0 1-51.2-51.2V121.344a51.2 51.2 0 0 1 79.616-42.6496l394.0864 262.7584a51.2 51.2 0 0 1 0 85.1968L361.216 689.3568A51.2 51.2 0 0 1 332.8 697.856z"  horiz-adv-x="1024" />

    
    <glyph glyph-name="export-2_icon" unicode="&#58968;" d="M68.2496 120.832V647.168c0 99.0208 89.1392 180.5824 197.376 180.5824h180.4288c16.9472 0 31.7952-13.6192 31.7952-29.184 0-15.5136-14.848-29.0816-31.7952-29.0816H265.6256c-74.24 0-133.6832-54.3744-133.6832-122.368v-526.2336c0-67.9936 59.392-122.368 133.6832-122.368h176.128c16.9984 0 31.8464-13.568 31.8464-29.1328 0-15.5136-14.848-29.1328-31.7952-29.1328h-176.128c-108.288 0-197.4272 81.5616-197.4272 180.6336zM292.2496 381.8496a32.768 32.768 0 0 0 32 32h524.8a32.768 32.768 0 0 0 32-32 32.768 32.768 0 0 0-32-32H324.2496a32.768 32.768 0 0 0-32 32zM637.3376 671.488c12.8 12.8 32 12.8 44.8 0l262.4-262.4c3.4304-5.12 6.8096-11.6224 8.0384-17.3056l0.512-4.096a32.1024 32.1024 0 0 0-8.5504-23.3984l-130.1504-130.1504a30.9248 30.9248 0 0 0-44.8 0 30.9248 30.9248 0 0 0 0 44.8l107.7248 107.7248-239.9744 240.0256a30.9248 30.9248 0 0 0 0 44.8z m0-524.8l49.0496 49.0496c12.8 12.8 32 12.8 44.8 0 6.4-4.2496 8.5504-12.8 8.5504-21.3504a32.1024 32.1024 0 0 0-8.5504-23.4496l-49.0496-49.0496a30.9248 30.9248 0 0 0-44.8 0 30.9248 30.9248 0 0 0 0 44.8z"  horiz-adv-x="1024" />

    
    <glyph glyph-name="average_icon" unicode="&#58970;" d="M295.2192 383.1296h-19.968a19.968 19.968 0 0 1 0-39.936h19.968a19.968 19.968 0 0 1 0 39.936z m124.7744 0H378.368a19.968 19.968 0 0 1 0-39.936h41.5744a19.968 19.968 0 0 1 0 39.936z m144.64-19.968a19.968 19.968 0 0 1-19.968 19.968h-41.6256a19.968 19.968 0 0 1 0-39.936h41.6256a19.968 19.968 0 0 1 19.968 19.968z m63.1808 19.968a19.968 19.968 0 0 1 0-39.936h41.5744a19.968 19.968 0 0 1 0 39.936h-41.5744z m144.7424 0h-19.968a19.968 19.968 0 0 1 0-39.936h19.968a19.968 19.968 0 0 1 0 39.936zM497.92 424.0896a20.0192 20.0192 0 0 1 19.7632-17.3056c0.9216 0 1.7408 0 2.6624 0.2048a19.8656 19.8656 0 0 1 17.1008 22.4256l-6.912 50.432c-10.496 84.3264-63.1808 136.704-137.6256 136.704-36.2496 0-104.7552-22.7328-134.144-63.8976a19.968 19.968 0 1 1 32.6656-23.1936c19.456 27.392 74.0864 47.1552 101.4784 47.1552 53.4528 0 90.112-37.9904 97.9968-101.888l7.0144-50.688zM654.7968 165.1712c-53.5552 0-90.112 37.9904-97.9968 101.888l-6.912 50.7904c-1.4336 10.9056-11.52 19.1488-22.4256 17.1008a19.8656 19.8656 0 0 1-17.1008-22.4768l6.912-50.432c10.3936-84.2752 63.1808-136.704 137.6256-136.704 36.1984 0 104.7552 22.784 134.144 63.9488a19.968 19.968 0 0 1-4.7616 27.904 20.2752 20.2752 0 0 1-28.0064-4.864c-19.456-27.392-74.0864-47.104-101.4784-47.104zM451.072 828.2112a120.4224 120.4224 0 0 0 122.0096 0l287.6416-168.4992A124.3136 124.3136 0 0 0 921.6 552.448v-336.9984c0-44.032-23.3472-85.1456-60.928-107.1616l-287.744-168.4992a120.4736 120.4736 0 0 0-121.9072 0l-287.6416 168.448A124.3648 124.3648 0 0 0 102.4 215.5008V552.448a124.416 124.416 0 0 0 60.928 107.264zM512 793.6c-13.824 0-27.5968-3.584-39.936-10.8032L193.536 618.752A82.432 82.432 0 0 1 153.6 548.0448v-328.1408c0-29.0304 15.36-56.1152 39.936-70.656l278.5792-163.9936c24.6784-14.5408 55.296-14.4384 79.9232 0l278.3744 164.096c24.6784 14.5408 39.9872 41.6256 39.9872 70.656V548.0448c0 29.0304-15.36 56.2176-39.936 70.7072L551.936 782.848A78.848 78.848 0 0 1 512 793.6z"  horiz-adv-x="1024" />

    
    <glyph glyph-name="up_icon" unicode="&#58966;" d="M1572.864-128a65.536 65.536 0 0 1 46.2848 111.8208L1105.408 497.664a65.536 65.536 0 0 1-92.7744 0L716.4928 201.5232 111.9232 806.0928a65.536 65.536 0 0 1-92.672-92.672L670.1056 62.464a65.536 65.536 0 0 1 92.672 0l296.2432 296.2432 467.5584-467.456c12.288-12.288 28.8768-19.2512 46.2848-19.2512zM65.536 283.0336a65.536 65.536 0 0 1 65.536 65.536V694.272h345.6a65.536 65.536 0 1 1 0 131.072H65.536a65.536 65.536 0 0 1-65.536-65.536v-411.136c0-36.1472 29.3888-65.536 65.536-65.536z"  horiz-adv-x="1638" />

    
    <glyph glyph-name="down_icon" unicode="&#58967;" d="M65.536 896a65.536 65.536 0 0 1-46.2848-111.8208L532.992 270.336a65.536 65.536 0 0 1 92.7744 0l296.1408 296.1408 604.5696-604.5696a65.536 65.536 0 0 1 92.672 92.672L968.2944 705.536a65.536 65.536 0 0 1-92.672 0L579.3792 409.2928 111.8208 876.7488A65.3312 65.3312 0 0 1 65.536 896zM1572.864 484.9664a65.536 65.536 0 0 1-65.536-65.536V73.728h-345.6a65.536 65.536 0 1 1 0-131.072h411.136a65.536 65.536 0 0 1 65.536 65.536V419.4304a65.536 65.536 0 0 1-65.536 65.536z"  horiz-adv-x="1638" />

    
    <glyph glyph-name="calendar_click_icon" unicode="&#58969;" d="M976 763.392h-84.544V848a48 48 0 0 1-96 0v-84.608h-235.52V848a48 48 0 0 1-96 0v-84.608H228.672V848a48 48 0 0 1-96 0v-84.608H48a48 48 0 0 1-48-48V-80c0-26.496 21.504-48 48-48h928a48 48 0 0 1 48 48V715.392a48 48 0 0 1-48 48zM928-32h-832V667.392h832V-32zM478.848 468.544h66.304a48 48 0 0 1 0 96H478.848a48 48 0 0 1 0-96z m0-198.848h66.304a48 48 0 0 1 0 96H478.848a48 48 0 0 1 0-96z m0-198.848h66.304a48 48 0 0 1 0 96H478.848a48 48 0 0 1 0-96zM213.76 468.544h66.304a48 48 0 0 1 0 96H213.696a48 48 0 0 1 0-96z m0-198.848h66.304a48 48 0 0 1 0 96H213.696a48 48 0 0 1 0-96z m0-198.848h66.304a48 48 0 0 1 0 96H213.696a48 48 0 0 1 0-96z m530.304 397.696h66.304a48 48 0 0 1 0 96h-66.304a48 48 0 0 1 0-96z m0-198.848h66.304a48 48 0 0 1 0 96h-66.304a48 48 0 0 1 0-96z"  horiz-adv-x="1024" />

    
    <glyph glyph-name="tool-disable-2" unicode="&#58962;" d="M981.333333 710.4A143.146667 143.146667 0 0 1 838.4 853.333333H185.6A143.146667 143.146667 0 0 1 42.666667 710.4v-652.8A143.146667 143.146667 0 0 1 185.6-85.333333h652.8A143.146667 143.146667 0 0 1 981.333333 57.6V710.4z m-64.554666-643.157333c0-48.64-39.466667-88.576-88.533334-88.576H195.072a88.618667 88.618667 0 0 0-88.490667 88.576V700.757333c0 21.162667 7.68 40.917333 20.224 56.32 0.426667 0.981333 1.408 1.450667 1.92 1.92 2.858667 3.413333 6.229333 6.741333 10.069334 10.112 15.402667 12.501333 34.645333 20.224 56.32 20.224h633.6c48.597333 0 88.533333-39.466667 88.533333-88.576v-633.514666h-0.469333zM682.453333 250.624c0-20.48-16.64-37.290667-37.248-37.290667H378.624A37.333333 37.333333 0 0 0 341.333333 250.624V517.376c0 8.917333 3.242667 17.237333 8.533334 23.722667 0.170667 0.426667 0.597333 0.597333 0.768 0.810666a37.205333 37.205333 0 0 0 27.946666 12.8l266.794667-0.042666c20.48 0 37.290667-16.64 37.290667-37.290667v-266.752h-0.213334z"  horiz-adv-x="1024" />

    
    <glyph glyph-name="tool-enable-2" unicode="&#58965;" d="M981.418667 710.4A143.146667 143.146667 0 0 1 838.485333 853.333333h-652.8a143.146667 143.146667 0 0 1-142.933333-142.933333v-652.8A143.146667 143.146667 0 0 1 185.685333-85.333333h652.8a143.146667 143.146667 0 0 1 142.933334 142.933333V710.4zM916.906667 67.242667c0-48.64-39.466667-88.576-88.533334-88.576H195.157333A88.618667 88.618667 0 0 0 106.666667 67.242667V700.757333c0 21.162667 7.68 40.917333 20.224 56.32 0.426667 0.981333 1.408 1.450667 1.92 1.92 2.858667 3.413333 6.229333 6.741333 10.069333 10.112 15.402667 12.501333 34.645333 20.224 56.32 20.224h633.6c48.64 0 88.533333-39.466667 88.533333-88.576v-633.514666h-0.469333zM361.386667 128c-10.709333 0-21.034667 2.688-30.890667 8.106667A63.104 63.104 0 0 0 298.666667 190.72V577.237333c0 22.4 12.117333 43.477333 31.829333 54.656a62.549333 62.549333 0 0 0 63.189333-0.853333l320.085334-193.237333c18.816-11.648 30.506667-31.36 30.506666-53.76 0-22.016-11.221333-42.154667-30.506666-53.845334L394.154667 136.96c-9.856-5.802667-21.504-8.96-32.725334-8.96z m0 449.194667v-386.432l320.128 193.194666L361.386667 577.194667z"  horiz-adv-x="1024" />

    
    <glyph glyph-name="tool-release-noclick" unicode="&#59066;" d="M943.872 806.144c0 0.682667 0 1.792-0.213333 3.029333a26.026667 26.026667 0 0 1-2.986667 8.448c-0.170667 0.554667-0.512 1.109333-0.853333 1.706667-0.426667 0.768-1.152 1.450667-1.792 2.133333a29.184 29.184 0 0 1-4.522667 4.608 12.586667 12.586667 0 0 1-2.816 1.792c-0.682667 0.426667-1.706667 1.237333-3.242667 1.92a16.469333 16.469333 0 0 1-3.285333 0.981334 26.24 26.24 0 0 1-9.898667 1.024h-0.213333a25.344 25.344 0 0 1-9.898667-2.944c-0.682667-0.213333-1.237333-0.554667-1.92-0.853334l-0.085333-0.128c-0.128-0.128-0.256-0.128-0.341333-0.256L86.016 351.744l-0.170667-0.085333a27.093333 27.093333 0 0 1-12.842666-23.210667c0-9.344 4.949333-18.346667 13.056-23.253333l281.898666-167.765334c0.597333-74.922667 0.938667-158.848 0.256-170.410666a27.221333 27.221333 0 0 1 26.965334-31.530667 27.136 27.136 0 0 1 19.370666 7.978667l139.605334 139.52 234.24-80.981334c7.68-2.816 16.213333-2.133333 23.381333 2.005334a27.221333 27.221333 0 0 1 13.269333 19.584L943.786667 800.512c0.426667 2.261333 0.213333 4.266667 0.128 5.632zM803.797333 704.426667L388.266667 189.013333l-235.008 139.264L803.797333 704.426667z m70.101334 0.810666L776.021333 64.85333300000002l-219.306666 75.477334a27.477333 27.477333 0 0 1-28.885334-6.314667l-104.533333-104.533333c0 29.397333-0.213333 67.968-0.64 115.114666L873.898667 705.237333zM881.408 749.226667L803.84 704.426667 388.266667 189.013333l-1.365334 0.768 35.882667-22.357333v-22.613333L873.898667 705.237333z"  horiz-adv-x="1024" />

    
    <glyph glyph-name="bitiantishi" unicode="&#58882;" d="M0 896h1024v-1024H0zM606.336 106.666667l124.842667 91.776-130.517334 143.36 188.672 37.290666-48.213333 149.077334-174.506667-81.706667L590.72 640h-157.44l24.106667-193.536-174.506667 81.706667-48.213333-149.077334 188.672-37.290666-130.517334-143.36 126.293334-91.733334 93.610666 170.581334z"  horiz-adv-x="1024" />

    
    <glyph glyph-name="gouxuan" unicode="&#58883;" d="M948.309333 534.741333L459.093333 45.568a59.349333 59.349333 0 0 0-41.941333-18.261333c-20.053333-3.626667-40.106667 1.834667-54.698667 16.426666L75.093333 332.629333a81.493333 81.493333 0 0 0 0.128 115.029334 81.237333 81.237333 0 0 0 114.901334 0l219.733333-219.733334 421.76 421.717334a82.517333 82.517333 0 0 0 116.224 0.426666 81.237333 81.237333 0 0 0 0.469333-115.328z"  horiz-adv-x="1024" />

    
    <glyph glyph-name="jinggao" unicode="&#58884;" d="M0 896h1024v-1024H0zM512 896C229.248 896 0 666.752 0 384s229.248-512 512-512 512 229.248 512 512S794.794667 896 512 896z m0-796.032a56.789333 56.789333 0 1 0 0 113.621333 56.789333 56.789333 0 0 0 0-113.621333z m28.416 230.272c0-31.445333-13.056-56.746667-28.416-56.746667-15.36 0-28.416 25.301333-28.416 56.746667l-28.373333 252.586667a56.789333 56.789333 0 1 0 113.578666 0l-28.373333-252.586667z"  horiz-adv-x="1024" />

    
    <glyph glyph-name="cuowu" unicode="&#58885;" d="M512 896c282.752 0 512-229.248 512-512s-229.248-512-512-512S0 101.248 0 384 229.248 896 512 896z m123.178667-330.88L512 441.941333 388.821333 565.12c-14.506667 14.506667-43.477333 14.506667-57.941333 0-14.506667-14.506667-14.506667-43.477333 0-57.941333L454.058667 384l-123.178667-123.178667c-14.506667-14.506667-14.506667-43.477333 0-57.941333 14.506667-14.506667 43.477333-14.506667 57.941333 0L512 326.058667l123.178667-123.178667c14.506667-14.506667 43.477333-14.506667 57.941333 0 14.506667 14.506667 14.506667 43.477333 0 57.941333L569.941333 384l123.178667 123.178667c14.506667 14.506667 14.506667 43.477333 0 57.941333-14.506667 14.506667-43.477333 14.506667-57.941333 0z"  horiz-adv-x="1024" />

    
    <glyph glyph-name="paixu" unicode="&#58886;" d="M0 896h1024v-1024H0zM222.165333 426.666667h579.669334a21.333333 21.333333 0 0 1 15.061333 36.437333l-289.792 289.792a21.333333 21.333333 0 0 1-30.208 0l-289.792-289.792a21.333333 21.333333 0 0 1 15.061333-36.437333zM222.165333 341.333333h579.669334a21.333333 21.333333 0 0 0 15.061333-36.437333l-289.792-289.792a21.333333 21.333333 0 0 0-30.208 0l-289.792 289.792A21.333333 21.333333 0 0 0 222.165333 341.333333z"  horiz-adv-x="1024" />

    
    <glyph glyph-name="chenggong" unicode="&#58887;" d="M512 896C228.992 896 0 667.008 0 384s228.992-512 512-512 512 228.992 512 512S795.008 896 512 896z m260.693333-425.386667l-279.296-279.296a30.293333 30.293333 0 0 0-21.418666-9.344 30.976 30.976 0 0 0-27.946667 8.405334l-175.914667 176.853333a30.890667 30.890667 0 0 0 0 43.776l14.890667 14.890667a30.890667 30.890667 0 0 0 43.733333 0l141.525334-141.525334 244.821333 244.864a30.890667 30.890667 0 0 0 43.733333 0l15.829334-14.933333a30.890667 30.890667 0 0 0 0-43.733333z"  horiz-adv-x="1024" />

    
    <glyph glyph-name="shaixuan" unicode="&#58889;" d="M682.666667 298.666667v-170.666667l-170.666667-85.333333H341.333333v256h341.333334z m170.666666 426.666666l-170.666666-341.333333H341.333333L170.666667 725.333333h682.666666z"  horiz-adv-x="1024" />

    
    <glyph glyph-name="tishi" unicode="&#58899;" d="M512 896C229.248 896 0 666.709333 0 384s229.248-512 512-512 512 229.248 512 512S794.709333 896 512 896z m138.538667-799.36c-30.122667-10.368-53.76-18.432-71.765334-24.106667-17.792-5.674667-38.613333-8.533333-62.293333-8.533333-36.266667 0-64.597333 8.106667-84.650667 23.68-20.352 16.085333-30.378667 35.968-30.378666 60.586667 0 9.472 0.768 18.944 2.304 28.885333 1.578667 9.898667 4.138667 21.290667 7.253333 33.621333l37.546667 118.784c3.328 11.349333 1.450667 21.76 3.754666 32.170667a122.88 122.88 0 0 1 3.328 27.434667c0 15.658667 1.450667 26.026667-5.546666 31.744-7.168 6.144-20.266667 4.394667-40.106667 4.394666-9.813333 0-19.84-1.408-29.866667-3.797333-10.24-2.816-19.029333-0.597333-26.24-3.413333l10.069334 36.906666c24.405333 8.96 48.085333 16.554667 70.485333 22.698667a223.872 223.872 0 0 0 63.573333 9.472c36.266667 0 64.085333-7.594667 83.626667-23.210667 19.541333-15.616 41.173333-35.968 41.173333-60.586666 0-5.205333-0.853333-14.208-2.133333-27.434667-1.237333-12.8-3.84-24.618667-7.424-35.498667l-49.408-118.314666a318.72 318.72 0 0 1-7.978667-32.682667c-2.56-11.818667-3.84-21.333333-3.84-27.434667 0-15.658667 4.096-26.496 11.818667-32.213333 7.978667-5.632 21.632-8.490667 40.917333-8.490667a132.266667 132.266667 0 0 1 30.848 4.266667c11.562667 2.816 19.797333 5.162667 24.96 7.552l-10.026666-36.48z m-6.698667 480c-17.237333-14.677333-38.314667-21.76-62.72-21.76-24.448 0-45.568 7.082667-63.317333 21.76-17.493333 14.208-26.24 31.701333-26.24 52.565333 0 20.352 8.746667 37.888 26.24 52.522667a96.554667 96.554667 0 0 0 63.274666 22.272c24.448 0 45.525333-7.552 62.762667-22.272 17.493333-14.677333 26.282667-32.213333 26.282667-52.522667 0-20.864-8.746667-38.357333-26.282667-52.565333z"  horiz-adv-x="1024" />

    
    <glyph glyph-name="rili" unicode="&#58906;" d="M976 763.392h-84.565333V848a48 48 0 0 1-96 0v-84.608h-235.434667V848a48 48 0 0 1-96 0v-84.608H228.608V848a48 48 0 0 1-96 0v-84.608H48C21.504 763.392 0 741.888 0 715.392v-795.392C0-106.453333 21.504-128 48-128h928c26.453333 0 48 21.504 48 48V715.392c0 26.496-21.504 48-48 48z m-48-96V-32H96V667.392h832z m-382.848-500.522667h-66.261333a48 48 0 0 1 0-96h66.261333a48 48 0 0 1 0 96z m-265.173333 0H213.76a48 48 0 0 1 0-96h66.261333a48 48 0 0 1 0 96z m265.173333 198.826667h-66.261333a48 48 0 0 1 0-96h66.261333a48 48 0 0 1 0 96z m-265.173333 0H213.76a48 48 0 0 1 0-96h66.261333a48 48 0 0 1 0 96z m530.346666 0h-66.346666a48 48 0 0 1 0-96h66.346666a48 48 0 0 1 0 96z m-265.173333 198.869333h-66.261333a48 48 0 0 1 0-96h66.261333a48 48 0 0 1 0 96z m-265.173333 0H213.76a48 48 0 0 1 0-96h66.261333a48 48 0 0 1 0 96z m530.346666 0h-66.346666a48 48 0 0 1 0-96h66.346666a48 48 0 0 1 0 96z"  horiz-adv-x="1024" />

    
    <glyph glyph-name="up" unicode="&#58909;" d="M840.405333 172.032H183.594667c-19.712 0-30.72 20.778667-18.474667 34.986667l328.362667 380.8a25.002667 25.002667 0 0 0 37.034666 0l328.362667-380.8c12.202667-14.208 1.237333-34.986667-18.474667-34.986667z"  horiz-adv-x="1024" />

    
    <glyph glyph-name="down" unicode="&#58912;" d="M840.405333 596.010667H183.594667c-19.712 0-30.72-20.821333-18.474667-34.986667l328.362667-380.842667c9.386667-10.88 27.52-10.88 37.034666 0l328.362667 380.8c12.202667 14.208 1.237333 34.986667-18.474667 34.986667z"  horiz-adv-x="1024" />

    
    <glyph glyph-name="right" unicode="&#58913;" d="M320 712.405333v-656.810666c0-19.669333 20.778667-30.72 34.986667-18.474667l380.8 328.405333a25.002667 25.002667 0 0 1 0 36.992L354.986667 730.88c-14.208 12.202667-34.986667 1.194667-34.986667-18.517333z"  horiz-adv-x="1024" />

    
    <glyph glyph-name="yidong" unicode="&#58914;" d="M0 896h1024v-1024H0zM528 778.666667h-32a42.538667 42.538667 0 0 1-42.666667-42.666667V426.666667H329.002667l-17.28 102.784-198.954667-153.301334L330.666667 245.76V341.333333h122.666666v-309.333333a42.538667 42.538667 0 0 1 42.666667-42.666667h32a42.538667 42.538667 0 0 1 42.666667 42.666667V341.333333h124.330666l17.28-102.784 198.954667 153.301334L693.333333 522.24V426.666667h-122.666666V736a42.538667 42.538667 0 0 1-42.666667 42.666667z"  horiz-adv-x="1024" />

    
    <glyph glyph-name="on" unicode="&#58915;" d="M435.2 394.965333c0 5.973333 2.304 12.074667 6.826667 16.64l343.466666 343.552a23.296 23.296 0 0 0 32.938667-32.938666l-327.253333-327.253334 327.082666-327.082666a23.296 23.296 0 0 0-32.938666-32.938667l-343.296 343.424a23.296 23.296 0 0 0-6.826667 16.64z m-270.549333 0c0 5.973333 2.261333 12.074667 6.826666 16.64l343.552 343.424a23.296 23.296 0 0 0 32.981334-32.938666l-327.253334-327.253334 327.082667-327.082666a23.296 23.296 0 0 0 0-32.938667 23.466667 23.466667 0 0 0-32.938667 0.128l-343.466666 343.424a23.296 23.296 0 0 0-6.784 16.64z"  horiz-adv-x="1024" />

    
    <glyph glyph-name="zhankai" unicode="&#58916;" d="M494.890667 335.36c5.973333 0 12.074667 2.218667 16.64 6.784l343.552 343.424a23.296 23.296 0 0 1-32.981334 32.938667l-327.253333-327.253334-327.082667 327.125334a23.296 23.296 0 0 1-32.938666-32.938667l343.466666-343.296c4.522667-4.565333 10.496-6.826667 16.597334-6.826667z m0-270.592c5.973333 0 12.074667 2.261333 16.64 6.826667l343.381333 343.552a23.296 23.296 0 0 1-32.938667 32.938666l-327.253333-327.253333L167.68 448a23.296 23.296 0 0 1-32.938667 0 23.466667 23.466667 0 0 1 0.128-32.938667l343.466667-343.466666c4.522667-4.522667 10.496-6.826667 16.597333-6.826667z"  horiz-adv-x="1024" />

    
    <glyph glyph-name="shouqi" unicode="&#58918;" d="M494.890667 454.784c5.973333 0 12.074667-2.304 16.64-6.826667l343.552-343.466666a23.296 23.296 0 0 0-32.981334-32.938667l-327.253333 327.253333-327.082667-327.082666a23.296 23.296 0 0 0-32.938666 32.938666l343.466666 343.296a23.296 23.296 0 0 0 16.597334 6.826667z m0 270.549333c5.973333 0 12.074667-2.261333 16.64-6.826666l343.381333-343.552a23.296 23.296 0 0 0-32.938667-32.938667l-327.253333 327.253333-327.082667-327.125333a23.296 23.296 0 0 0-32.938666 0 23.466667 23.466667 0 0 0 0.128 32.938667l343.466666 343.466666A23.296 23.296 0 0 0 494.848 725.333333z"  horiz-adv-x="1024" />

    
    <glyph glyph-name="next" unicode="&#58920;" d="M554.666667 395.093333c0-5.973333-2.261333-12.074667-6.826667-16.64l-343.424-343.552a23.296 23.296 0 0 0-32.938667 32.981334l327.253334 327.253333-327.125334 327.082667a23.296 23.296 0 0 0 32.938667 32.938666l343.296-343.466666c4.565333-4.522667 6.826667-10.496 6.826667-16.597334z m270.549333 0c0-5.973333-2.261333-12.074667-6.826667-16.64l-343.552-343.381333a23.296 23.296 0 0 0-32.938666 32.938667l327.253333 327.253333L442.026667 722.346667a23.296 23.296 0 0 0 0 32.938666 23.466667 23.466667 0 0 0 32.938666-0.128l343.466667-343.466666c4.522667-4.522667 6.826667-10.496 6.826667-16.597334z"  horiz-adv-x="1024" />

    
    <glyph glyph-name="up-kong" unicode="&#58921;" d="M271.914667 222.378667a36618.24 36618.24 0 0 1 111.232 111.189333c42.496 42.624 84.906667 85.333333 129.024 129.664 11.349333-10.624 21.077333-19.157333 30.208-28.288 69.546667-69.418667 139.008-138.965333 208.64-208.426667 7.381333-7.381333 14.592-15.36 23.253333-20.949333 13.397333-8.618667 27.989333-8.362667 39.765333 3.029333 13.056 12.672 13.482667 28.032 3.328 42.752-5.12 7.466667-12.117333 13.738667-18.56 20.224-81.493333 81.578667-162.986667 163.242667-244.693333 244.693334-35.84 35.754667-45.312 35.84-80.341333 0.853333a154939.562667 154939.562667 0 0 1-244.693334-244.608c-7.381333-7.381333-14.933333-14.848-20.949333-23.338667-9.728-13.610667-7.765333-27.392 3.541333-39.253333 11.52-11.989333 25.728-13.013333 39.594667-5.376 7.808 4.266667 14.165333 11.434667 20.650667 17.834667z"  horiz-adv-x="1024" />

    
    <glyph glyph-name="left" unicode="&#58922;" d="M701.312 55.594667V712.405333c0 19.712-20.821333 30.72-34.986667 18.517334l-380.8-328.405334a25.002667 25.002667 0 0 1 0-36.992l380.8-328.405333c14.165333-12.202667 34.986667-1.194667 34.986667 18.474667z"  horiz-adv-x="1024" />

    
    <glyph glyph-name="close-menu" unicode="&#58923;" d="M512 793.6a409.6 409.6 0 1 1 0-819.2 409.6 409.6 0 0 1 0 819.2z m181.248-518.144a51.413333 51.413333 0 0 0-72.704-72.704L512 311.808l-108.544-109.056a51.413333 51.413333 0 0 0-72.704 72.704L439.808 384 330.752 492.544a51.413333 51.413333 0 1 0 72.704 72.704L512 456.192l108.544 109.056a51.413333 51.413333 0 1 0 72.704-72.704L584.192 384l109.056-108.544z"  horiz-adv-x="1024" />

    
    <glyph glyph-name="left-kong" unicode="&#58924;" d="M628.053333 138.666667a36618.24 36618.24 0 0 1-111.232 111.232c-42.581333 42.453333-85.290667 84.906667-129.621333 129.024 10.624 11.349333 19.157333 21.034667 28.245333 30.165333 69.418667 69.589333 139.008 139.050667 208.469334 208.64 7.381333 7.381333 15.36 14.634667 20.906666 23.296 8.618667 13.354667 8.405333 27.989333-2.986666 39.765333-12.714667 13.056-28.032 13.482667-42.752 3.285334-7.466667-5.12-13.738667-12.074667-20.224-18.56-81.621333-81.493333-163.242667-162.986667-244.693334-244.650667-35.754667-35.84-35.84-45.312-0.896-80.384 81.408-81.664 162.986667-163.2 244.650667-244.693333 7.381333-7.381333 14.848-14.933333 23.296-20.906667 13.653333-9.728 27.434667-7.808 39.253333 3.541333 12.032 11.477333 13.056 25.728 5.418667 39.552-4.266667 7.808-11.434667 14.208-17.877333 20.693334z"  horiz-adv-x="1024" />

    
    <glyph glyph-name="close-guanbiquanbu" unicode="&#58925;" d="M512 438.058667L295.552 654.506667a38.357333 38.357333 0 0 1-53.845333-0.213334 37.973333 37.973333 0 0 1-0.213334-53.845333L457.941333 384 241.493333 167.552a38.357333 38.357333 0 0 1 0.213334-53.845333 37.973333 37.973333 0 0 1 53.845333-0.213334L512 329.941333l216.448-216.448c14.506667-14.506667 38.912-14.72 53.845333 0.213334a37.973333 37.973333 0 0 1 0.213334 53.845333L566.058667 384l216.448 216.448a38.357333 38.357333 0 0 1-0.213334 53.845333 37.973333 37.973333 0 0 1-53.845333 0.213334L512 438.058667z"  horiz-adv-x="1024" />

    
    <glyph glyph-name="right-kong" unicode="&#58926;" d="M364.202667 130.133333a36618.24 36618.24 0 0 0 111.189333 111.232c42.581333 42.453333 85.290667 84.906667 129.621333 129.024-10.624 11.349333-19.157333 21.034667-28.245333 30.165334-69.418667 69.589333-139.008 139.050667-208.469333 208.64-7.381333 7.381333-15.36 14.634667-20.906667 23.296-8.618667 13.354667-8.405333 27.989333 2.986667 39.765333 12.714667 13.056 28.032 13.482667 42.752 3.285333 7.466667-5.12 13.738667-12.074667 20.224-18.56 81.621333-81.493333 163.242667-162.986667 244.693333-244.650666 35.754667-35.84 35.84-45.312 0.896-80.384a154939.562667 154939.562667 0 0 0-244.650667-244.693334c-7.381333-7.381333-14.848-14.933333-23.296-20.906666-13.653333-9.728-27.434667-7.808-39.253333 3.541333-12.032 11.477333-13.056 25.728-5.418667 39.552 4.266667 7.808 11.434667 14.208 17.877334 20.693333z"  horiz-adv-x="1024" />

    
    <glyph glyph-name="file" unicode="&#58927;" d="M0 896h1024v-1024H0zM509.44 455.68h-179.2v-35.84h179.2v35.84z m0 107.52h-179.2v-35.84h179.2V563.2z m-179.2-358.4h394.24v35.84H330.24v-35.84z m514.432 299.392L623.488 742.4H276.48A71.68 71.68 0 0 1 204.8 670.72v-573.44c0-39.594667 32.085333-71.68 71.68-71.68h501.76a71.68 71.68 0 0 1 71.68 71.68V491.52l-6.357333 6.314667 1.109333 6.357333zM634.88 676.778667l156.885333-167.338667H670.72a35.84 35.84 0 0 0-35.84 35.84V676.778667z m179.2-579.498667a35.84 35.84 0 0 0-35.84-35.84H276.48a35.84 35.84 0 0 0-35.84 35.84V670.72a35.84 35.84 0 0 0 35.84 35.84h322.56v-161.28c0-39.594667 32.085333-71.68 71.68-71.68h143.36v-376.32zM330.24 312.32h394.24v35.84H330.24v-35.84z"  horiz-adv-x="1024" />

    
    <glyph glyph-name="down-kong" unicode="&#58929;" d="M754.432 520.362667a36618.24 36618.24 0 0 1-111.232-111.189334c-42.496-42.624-84.906667-85.290667-129.024-129.621333-11.349333 10.581333-21.077333 19.114667-30.208 28.245333-69.546667 69.418667-139.008 139.008-208.64 208.426667-7.381333 7.381333-14.592 15.36-23.253333 20.949333-13.397333 8.618667-27.989333 8.362667-39.765334-3.029333-13.056-12.672-13.482667-28.032-3.328-42.752 5.12-7.424 12.117333-13.738667 18.56-20.181333 81.493333-81.621333 162.986667-163.242667 244.693334-244.693334 35.84-35.754667 45.312-35.84 80.341333-0.938666 81.664 81.450667 163.2 163.029333 244.693333 244.650666 7.381333 7.424 14.933333 14.890667 20.949334 23.338667 9.728 13.653333 7.765333 27.434667-3.541334 39.253333-11.52 12.032-25.728 13.013333-39.594666 5.418667-7.808-4.309333-14.165333-11.434667-20.650667-17.92z"  horiz-adv-x="1024" />

    
    <glyph glyph-name="folder" unicode="&#58930;" d="M0 896h1024v-1024H0zM676.650667 142.293333H209.024a3.84 3.84 0 0 0-3.968 3.925334v311.381333H816.64v-178.176c0-10.666667 8.96-19.626667 19.626667-19.626667 10.709333 0 19.712 8.96 19.712 19.626667V549.802667c0 23.594667-19.114667 43.264-43.264 43.264h-289.493334l-74.197333 59.562666a19.626667 19.626667 0 0 1-12.373333 4.522667H209.024c-23.594667 0-43.264-19.114667-43.264-43.264v-467.626667c0-23.637333 19.114667-43.306667 43.264-43.306666h467.626667c10.666667 0 19.712 8.96 19.712 19.669333 0 10.666667-9.002667 19.669333-19.669334 19.669333z m71.936 1.706667a21.333333 21.333333 0 1 0 0-42.752 21.333333 21.333333 0 0 0 0 42.752z m74.197333-2.858667a21.333333 21.333333 0 1 0 21.333333-36.992 21.333333 21.333333 0 0 0-21.333333 36.992z m12.373333 75.946667a21.333333 21.333333 0 1 0 0-42.752 21.333333 21.333333 0 0 0 0 42.709333z m-405.290666 400.170667l74.24-59.605334a19.626667 19.626667 0 0 1 12.373333-4.48h296.746667a3.84 3.84 0 0 0 3.925333-3.925333v-52.864H205.610667v116.906667a3.84 3.84 0 0 0 3.968 3.968h220.288z"  horiz-adv-x="1024" />

    
    <glyph glyph-name="down1" unicode="&#58931;" d="M729.898667 342.613333a34234.026667 34234.026667 0 0 1-103.978667-103.978666c-39.722667-39.808-79.36-79.701333-120.618667-121.173334-10.666667 9.898667-19.712 17.92-28.245333 26.410667-65.066667 64.896-129.962667 129.962667-195.029333 194.858667-6.912 6.912-13.653333 14.378667-21.76 19.626666-12.501333 8.021333-26.197333 7.808-37.205334-2.858666-12.202667-11.861333-12.586667-26.197333-3.072-39.936 4.821333-6.997333 11.306667-12.885333 17.365334-18.944 76.202667-76.288 152.362667-152.576 228.693333-228.736 33.536-33.450667 42.410667-33.536 75.136-0.853334 76.373333 76.117333 152.618667 152.405333 228.778667 228.693334 6.912 6.954667 13.952 13.909333 19.626666 21.845333 9.045333 12.714667 7.253333 25.6-3.370666 36.693333-10.709333 11.221333-24.064 12.16-36.992 5.034667-7.253333-4.010667-13.269333-10.666667-19.328-16.682667zM473.173333 680.32c-0.298667-7.125333-0.085333-14.250667-0.085333-21.333333v-367.146667c0.042667-47.018667 8.874667-65.450667 31.573333-63.914667 23.168 1.621333 31.018667 16.128 30.037334 65.792-1.28 61.141333-0.298667 122.368-0.298667 183.552v64c-0.042667 46.933333 0.554667 93.952-0.384 140.885334-0.554667 28.885333-12.458667 43.861333-30.933333 43.136-18.346667-0.682667-28.544-15.914667-29.866667-44.970667z"  horiz-adv-x="1024" />

    
    <glyph glyph-name="first" unicode="&#58932;" d="M505.344 142.762667c-36.949333 37.12-74.026667 74.24-111.189333 111.232-42.581333 42.453333-85.248 84.906667-129.621334 128.981333 10.624 11.392 19.157333 21.077333 28.245334 30.208 69.461333 69.589333 139.008 139.050667 208.469333 208.64 7.381333 7.381333 15.36 14.634667 20.906667 23.296 8.618667 13.354667 8.405333 27.989333-2.986667 39.765333-12.714667 13.056-28.032 13.44-42.752 3.285334-7.466667-5.12-13.738667-12.074667-20.224-18.56-81.621333-81.493333-163.242667-162.986667-244.693333-244.650667-35.754667-35.84-35.84-45.312-0.896-80.384a154937.173333 154937.173333 0 0 1 244.650666-244.693333c7.381333-7.381333 14.848-14.933333 23.296-20.906667 13.653333-9.728 27.434667-7.808 39.296 3.541333 11.989333 11.477333 13.013333 25.728 5.376 39.552-4.266667 7.808-11.434667 14.208-17.877333 20.693334z m292.778667 274.602666c-6.528 0.384-13.056 0.128-19.626667 0.128h-337.109333c-43.178667-0.042667-60.117333-9.514667-58.666667-33.834666 1.450667-24.746667 14.805333-33.109333 60.373333-32.042667 56.149333 1.28 112.384 0.298667 168.533334 0.298667h58.837333c43.093333 0.042667 86.229333-0.597333 129.322667 0.426666 26.538667 0.597333 40.32 13.312 39.68 33.066667-0.682667 19.626667-14.634667 30.549333-41.386667 32z"  horiz-adv-x="1024" />

    
    <glyph glyph-name="menu-hidden" unicode="&#58933;" d="M170.666667 630.186667a42.666667 42.666667 0 0 0 42.666666 42.666666h597.333334a42.666667 42.666667 0 0 0 0-85.333333H213.333333a42.666667 42.666667 0 0 0-42.666666 42.666667z m0-262.4a42.666667 42.666667 0 0 0 42.666666 42.666666h341.333334a42.666667 42.666667 0 0 0 0-85.333333H213.333333a42.666667 42.666667 0 0 0-42.666666 42.666667z m640-220.16a42.666667 42.666667 0 1 0 0-85.333334H213.333333a42.666667 42.666667 0 0 0 0 85.333334h597.333334z m-126.293334 342.528a8.533333 8.533333 0 0 0 11.946667 1.621333l147.925333-112.085333a8.533333 8.533333 0 0 0-0.042666-13.653334l-147.925334-109.781333a8.533333 8.533333 0 0 0-13.610666 6.826667v221.866666a8.533333 8.533333 0 0 0 1.706666 5.205334z"  horiz-adv-x="1024" />

    
    <glyph glyph-name="query" unicode="&#58934;" d="M446.805333 88.32C247.381333 88.32 85.333333 250.368 85.333333 449.792 85.333333 649.216 247.381333 810.666667 446.805333 810.666667c199.424 0 361.472-162.048 361.472-360.874667-0.597333-199.424-162.645333-361.472-361.472-361.472zM444.16 741.973333c-159.872 0-290.133333-130.218667-290.133333-289.493333 0-159.872 130.261333-290.133333 290.133333-290.133333 159.914667 0 290.133333 130.261333 290.133333 290.133333-0.597333 159.872-130.858667 289.536-290.133333 289.536z m472.618667-792.234666a38.229333 38.229333 0 0 0-27.733334 11.477333l-133.717333 133.717333a39.68 39.68 0 0 0 0 55.466667 39.68 39.68 0 0 0 55.424 0l133.717333-133.76a39.68 39.68 0 0 0 0-55.466667 38.229333 38.229333 0 0 0-27.733333-11.434666z"  horiz-adv-x="1024" />

    
    <glyph glyph-name="members" unicode="&#58935;" d="M640 640m-128 0a128 128 0 1 1 256 0 128 128 0 1 1-256 0ZM410.069333-128C216.789333-128 64-128 64-16.64v22.229333c0 208.64 155.264 314.410667 346.069333 314.410667h203.818667c190.848 0 346.112-105.813333 346.112-314.410667v-22.272C960-128 799.573333-128 613.888-128H410.069333z m1.024 384C254.976 256 128 178.176 128 3.797333v-22.613333C128-64 291.584-64 411.093333-64h201.813334c98.901333 0 283.093333 0 283.093333 45.226667v22.570666C896 178.176 769.024 256 612.906667 256h-201.813334z m100.864 128C370.773333 384 256 466.858667 256 608s114.773333 256 256 256 256-114.816 256-256c0-141.141333-114.858667-224-256-224zM320 608c0-105.813333 86.144-160 192-160s192 54.101333 192 160-86.144 192-192 192a192.170667 192.170667 0 0 1-192-192z"  horiz-adv-x="1024" />

    
    <glyph glyph-name="message" unicode="&#58936;" d="M617.642667 70.186667c-0.085333-56.021333-46.976-101.333333-105.642667-101.333334-58.282667 0-105.557333 45.184-105.642667 101.333334h211.285334zM512 799.146667c32.042667 0 58.325333-26.24 58.325333-58.368v-13.269334c141.568-27.434667 249.173333-152.661333 249.173334-301.952v-279.722666h90.88v-53.333334H113.621333v53.333334h652.501334v279.722666a254.933333 254.933333 0 0 1-244.650667 253.994667L512 679.68a255.061333 255.061333 0 0 1-254.165333-254.165333v-158.72h-53.333334v158.72c0 149.290667 107.648 274.474667 249.173334 301.909333v13.354667c0 32.085333 26.24 58.325333 58.325333 58.325333z"  horiz-adv-x="1024" />

    
    <glyph glyph-name="refresh" unicode="&#58937;" d="M763.306667 247.210667c-15.189333 10.069333-31.786667 11.861333-38.826667 4.778666l-0.384 0.512c-0.213333-0.64-0.64-1.237333-0.853333-1.792-0.128-0.128-0.298667-0.170667-0.341334-0.298666-0.341333-0.426667-0.469333-1.024-0.64-1.493334a239.872 239.872 0 0 0-449.706666 56.576l37.248-37.205333c0.256-0.426667 0.512-0.938667 0.853333-1.237333 8.96-8.96 28.970667-3.541333 44.672 12.117333 15.616 15.658667 21.12 35.669333 12.16 44.629333l0.170667 0.170667-96.981334 97.024h-0.512c-4.778667 8.405333-17.749333 14.378667-33.109333 14.378667-15.36 0-28.373333-5.973333-33.152-14.378667h-0.085333L105.386667 322.688l0.170666-0.213333c-7.253333-9.429333-1.834667-28.288 13.141334-43.306667 14.933333-14.976 33.792-20.48 43.306666-13.098667l0.170667-0.213333 39.04 39.04a310.442667 310.442667 0 0 1 306.218667-259.541333c119.338667 0 222.72 67.456 274.645333 166.229333 5.546667 9.130667-2.730667 24.96-18.773333 35.626667z m129.152 235.733333c-15.018667 15.018667-33.792 20.48-43.306667 13.141333l-0.213333 0.213334-39.082667-39.082667A310.442667 310.442667 0 0 1 503.68 716.8a310.101333 310.101333 0 0 1-274.645333-166.229333h0.128c-5.674667-9.088 2.645333-24.96 18.688-35.584 15.232-10.112 31.744-11.904 38.826666-4.864l0.341334-0.426667a17.706667 17.706667 0 0 0 0.981333 1.749333l0.298667 0.298667c0.298667 0.426667 0.426667 1.024 0.64 1.493333a239.701333 239.701333 0 0 0 214.741333 133.546667 240.298667 240.298667 0 0 0 234.88-190.037333l-37.12 37.12c-0.384 0.426667-0.597333 0.938667-0.938667 1.237333-8.96 8.96-28.928 3.584-44.586666-12.16-15.658667-15.616-21.162667-35.584-12.202667-44.586667l-0.170667-0.213333 96.981334-96.938667h0.512c4.821333-8.405333 17.749333-14.421333 33.066666-14.421333 15.36 0 28.288 5.973333 33.109334 14.421333h0.256l98.261333 98.261334-0.170667 0.170666c7.338667 9.514667 1.962667 28.330667-13.098666 43.306667z"  horiz-adv-x="1024" />

    
    <glyph glyph-name="menu-show" unicode="&#58938;" d="M170.666667 630.186667a42.666667 42.666667 0 0 0 42.666666 42.666666h597.333334a42.666667 42.666667 0 0 0 0-85.333333H213.333333a42.666667 42.666667 0 0 0-42.666666 42.666667z m256-262.4a42.666667 42.666667 0 0 0 42.666666 42.666666h341.333334a42.666667 42.666667 0 0 0 0-85.333333h-341.333334a42.666667 42.666667 0 0 0-42.666666 42.666667z m384-220.074667a42.666667 42.666667 0 1 0 0-85.333333H213.333333a42.666667 42.666667 0 0 0 0 85.333333h597.333334zM339.626667 478.634667a8.533333 8.533333 0 0 0 1.706666-5.12v-221.866667a8.533333 8.533333 0 0 0-13.653333-6.869333L179.84 354.56a8.533333 8.533333 0 0 0-0.042667 13.653333l147.882667 112.085334a8.533333 8.533333 0 0 0 11.946667-1.664z"  horiz-adv-x="1024" />

    
    <glyph glyph-name="tool-shuaxin" unicode="&#58939;" d="M920.021333 755.498667c-0.554667 22.613333-17.792 36.906667-42.496 36.394666-24.746667-0.554667-37.461333-15.616-41.514666-38.272-2.133333-11.733333-1.408-24.021333-1.536-36.053333-0.213333-20.522667-0.085333-41.088-0.085334-61.653333l-9.6-4.352c-10.794667 10.368-21.418667 20.906667-32.426666 31.061333-99.114667 91.392-216.746667 125.44-348.458667 105.216-185.941333-28.586667-323.754667-183.381333-339.925333-376.661333-15.146667-181.333333 101.802667-356.48 277.376-415.445334 177.621333-59.605333 375.253333 9.813333 475.136 166.997334 6.4 10.154667 13.098667 20.522667 17.066666 31.701333 7.594667 21.76 3.754667 41.984-17.706666 53.589333-20.693333 11.221333-40.32 6.698667-54.997334-12.288-7.338667-9.472-12.928-20.309333-19.797333-30.208-61.909333-89.429333-146.986667-138.154667-255.829333-143.488-145.792-7.082667-279.424 87.466667-321.877334 226.816A324.138667 324.138667 0 0 0 349.952 663.466667c126.165333 73.557333 288.170667 52.48 390.272-51.242667 7.466667-7.594667 12.501333-17.578667 24.618667-35.029333-39.850667 0-70.528 1.621333-100.992-0.469334-28.074667-1.962667-42.965333-18.688-42.752-42.154666 0.256-22.869333 16.170667-41.770667 43.221333-42.453334 70.570667-1.706667 141.226667-1.109333 211.882667-0.341333 23.253333 0.256 42.496 13.568 43.221333 36.565333a4081.493333 4081.493333 0 0 1 0.597333 227.114667z"  horiz-adv-x="1024" />

    
    <glyph glyph-name="tool-add" unicode="&#58940;" d="M520.533333 793.6a42.666667 42.666667 0 0 0 42.666667-42.666667v-315.733333h307.2a51.2 51.2 0 1 0 0-102.4h-307.2v-315.733333a42.666667 42.666667 0 0 0-42.666667-42.666667h-17.066666a42.666667 42.666667 0 0 0-42.666667 42.666667v315.733333H153.6a51.2 51.2 0 1 0 0 102.4h307.2V750.933333a42.666667 42.666667 0 0 0 42.666667 42.666667h17.066666z"  horiz-adv-x="1024" />

    
    <glyph glyph-name="skin" unicode="&#58941;" d="M301.184 768c15.530667 0 30.464-6.698667 40.533333-18.773333 30.122667-35.84 116.138667-59.136 170.282667-59.136 54.186667 0 140.16 23.253333 170.24 59.178666 10.112 12.032 25.045333 18.730667 40.576 18.730667h58.666667c14.293333 0 27.989333-5.76 38.058666-16.042667l195.072-198.357333a32.981333 32.981333 0 0 0 0-46.08l-118.954666-121.002667a31.701333 31.701333 0 0 0-45.354667 0l-3.925333 3.968a6.570667 6.570667 0 0 1-4.736 2.048 6.826667 6.826667 0 0 1-6.826667-6.912v-421.802666c0-27.392-21.845333-49.621333-48.810667-49.621334H237.994667c-26.965333 0-48.810667 22.186667-48.810667 49.621334v421.802666a6.826667 6.826667 0 0 1-6.826667 6.912 6.570667 6.570667 0 0 1-4.693333-2.048l-3.968-3.968a31.701333 31.701333 0 0 0-45.354667 0L9.386667 507.477333a33.024 33.024 0 0 0 0 46.122667l195.072 198.357333c10.069333 10.24 23.765333 16.042667 38.058666 16.042667z m-2.858667-59.52H245.162667l-174.933334-177.92 83.541334-84.992a66.474667 66.474667 0 0 0 94.976-59.946667v-411.904h526.506666v411.904a66.474667 66.474667 0 0 0 94.976 59.946667l83.541334 84.992-174.933334 177.92h-53.162666C678.016 654.762667 572.672 630.570667 512 630.570667c-60.672 0-166.058667 24.192-213.674667 77.909333zM337.834667 539.52h223.061333c20.522667 0 37.205333-16.64 37.205333-37.162667v-297.472c0-20.48-16.64-37.162667-37.205333-37.162666H337.834667a37.162667 37.162667 0 0 0-37.205334 37.162666V502.357333c0 20.522667 16.64 37.162667 37.205334 37.162667z"  horiz-adv-x="1024" />

    
    <glyph glyph-name="tool-choose" unicode="&#58942;" d="M958.592 161.28l-372.608 123.989333a20.949333 20.949333 0 0 1-12.970667 0 21.077333 21.077333 0 0 1-13.397333-26.624l123.818667-371.242666a21.162667 21.162667 0 0 1 20.181333-15.317334 20.736 20.736 0 0 1 18.432 11.178667l57.173333 108.8 103.765334-103.936 1.152-1.024c4.053333-4.053333 9.386667-6.016 14.762666-6.016a20.693333 20.693333 0 0 1 14.762667 6.016l44.202667 44.373333a20.821333 20.821333 0 0 1 0 29.525334l-104.96 104.746666 108.629333 57.173334a20.693333 20.693333 0 0 1 10.112 12.074666 20.650667 20.650667 0 0 1-13.056 26.282667z m-132.48-44.586667l-64.170667-33.706666-33.706666-64.128-16.981334-32.469334-73.813333 221.141334 221.226667-73.642667-32.554667-17.194667zM861.013333 563.2H351.061333A69.546667 69.546667 0 0 1 281.6 493.738667v-456.234667c0-38.314667 31.146667-69.461333 69.461333-69.461333h160.597334a28.757333 28.757333 0 1 1 0 57.6H351.061333a11.861333 11.861333 0 0 0-11.861333 11.861333V493.738667c0 6.570667 5.290667 11.861333 11.861333 11.861333H861.013333c6.570667 0 11.904-5.290667 11.904-11.861333v-218.282667a28.757333 28.757333 0 1 1 57.6 0V493.738667A69.461333 69.461333 0 0 1 861.013333 563.2z m-140.117333 86.4a28.757333 28.757333 0 0 1-28.8 28.8H235.861333A69.546667 69.546667 0 0 1 166.4 608.938667v-456.234667a28.757333 28.757333 0 1 1 57.6 0V608.938667c0 6.570667 5.290667 11.861333 11.861333 11.861333h456.234667a28.842667 28.842667 0 0 1 28.8 28.8zM605.696 764.8a28.757333 28.757333 0 0 1-28.8 28.8H120.661333A69.546667 69.546667 0 0 1 51.2 724.138667v-456.234667a28.757333 28.757333 0 1 1 57.6 0V724.138667c0 6.570667 5.290667 11.861333 11.861333 11.861333h456.234667a28.842667 28.842667 0 0 1 28.8 28.8z"  horiz-adv-x="1024" />

    
    <glyph glyph-name="tool-cj" unicode="&#58943;" d="M881.92 853.333333A99.541333 99.541333 0 0 0 981.333333 753.92v-473.6a33.109333 33.109333 0 1 0-66.261333 0V753.92a33.237333 33.237333 0 0 1-33.109333 33.152H142.037333a33.237333 33.237333 0 0 1-33.109333-33.109333v-739.925334c0-18.218667 14.933333-33.109333 33.109333-33.109333h472.192a33.109333 33.109333 0 1 0 0-66.261333H142.037333A99.541333 99.541333 0 0 0 42.666667 14.08V753.92A99.541333 99.541333 0 0 0 142.08 853.333333h739.84zM388.437333 213.461333a32 32 0 0 0 0.085334-64H245.76a32 32 0 1 0 0 64h142.677333z m0 207.786667a32 32 0 0 0 0.085334-64H245.76a32 32 0 1 0 0 64h142.677333z m304 207.914667a32 32 0 1 0 0-64H245.674667a32 32 0 1 0 0 64h446.72zM778.666667 332.8c15.658667 0 28.501333-12.373333 29.056-28.074667 1.536-44.117333 2.474667-91.605333 2.816-142.506666l123.221333-0.085334c13.226667 0 25.728-5.845333 34.218667-16a24.96 24.96 0 0 0 0-32 44.586667 44.586667 0 0 0-34.218667-16h-123.178667v-7.168c-0.213333-56.32-1.152-108.544-2.858666-156.757333a29.098667 29.098667 0 0 0-58.112 0c-1.749333 50.218667-2.730667 104.832-2.901334 163.84l-144.469333 0.085333c-13.226667 0-25.728 5.845333-34.218667 16a24.96 24.96 0 0 0 0 32c8.490667 10.154667 21.034667 16 34.218667 16l144.554667 0.085334c0.341333 50.901333 1.28 98.389333 2.816 142.506666a29.098667 29.098667 0 0 0 29.056 28.074667z"  horiz-adv-x="1024" />

    
    <glyph glyph-name="tool-down" unicode="&#58944;" d="M74.666667 362.666667c17.066667 0 32-14.933333 32-32v-181.333334c0-74.666667 59.733333-134.4 134.4-134.4H776.533333c74.666667 0 134.4 59.733333 134.4 134.4v177.066667c0 17.066667 14.933333 32 32 32s32-14.933333 32-32v-177.066667c0-108.8-89.6-198.4-198.4-198.4H241.066667C132.266667-49.066667 42.666667 40.533333 42.666667 149.333333v181.333334c0 17.066667 14.933333 32 32 32z m435.2 469.333333c17.066667 0 32-14.933333 32-32v-524.8c0-17.066667-14.933333-32-32-32s-32 14.933333-32 32V800c0 17.066667 14.933333 32 32 32zM530.133333 216.533333c-5.12-3.413333-11.605333-6.826667-17.28-8.064l-4.053333-0.469333a33.834667 33.834667 0 0 0-20.48 5.973333 26.752 26.752 0 0 0-2.986667 2.56l-130.133333 130.133334c-12.8 12.8-12.8 32 0 44.8 12.8 12.8 32 12.8 44.8 0l107.690667-107.733334 240.042666 240c12.8 12.8 32 12.8 44.8 0 12.8-12.8 12.8-32 0-44.8l-262.4-262.4z m-262.4 307.2l49.066667-49.066666c12.8-12.8 12.8-32 0-44.8-4.266667-6.4-12.8-8.533333-21.333333-8.533334s-17.066667 2.133333-23.466667 8.533334l-49.066667 49.066666c-12.8 12.8-12.8 32 0 44.8 12.8 12.8 32 12.8 44.8 0z"  horiz-adv-x="1024" />

    
    <glyph glyph-name="tool-cx" unicode="&#58945;" d="M425.642667 761.258667a290.858667 290.858667 0 0 0 205.696-496.554667 290.901333 290.901333 0 0 0-411.392 411.349333 289.066667 289.066667 0 0 0 205.696 85.205334m0 70.741333a361.642667 361.642667 0 1 1 0-723.242667 361.642667 361.642667 0 0 1 0 723.242667zM773.418667 165.973333a43.093333 43.093333 0 0 1-30.634667-12.586666l-0.213333-0.213334a43.392 43.392 0 0 1 0-61.141333l143.36-143.402667a43.392 43.392 0 0 1 61.184 0l0.213333 0.213334a43.392 43.392 0 0 1 0 61.141333l-143.317333 143.402667a43.093333 43.093333 0 0 1-30.634667 12.629333h0.042667z"  horiz-adv-x="1024" />

    
    </font>
</defs>
</svg>
